<svg width="372" height="363" viewBox="0 0 372 363" fill="none" xmlns="http://www.w3.org/2000/svg">
<mask id="mask0_1328_730" style="mask-type:luminance" maskUnits="userSpaceOnUse" x="-25" y="0" width="397" height="363">
<path d="M-25 6.10352e-05H372V363H-25V6.10352e-05Z" fill="white"/>
</mask>
<g mask="url(#mask0_1328_730)">
<mask id="mask1_1328_730" style="mask-type:luminance" maskUnits="userSpaceOnUse" x="-6" y="19" width="366" height="268">
<path d="M-5.62946 19.5839H359.21V286.319H-5.62946V19.5839Z" fill="white"/>
</mask>
<g mask="url(#mask1_1328_730)">
<g opacity="0.5">
<path d="M188.06 19.7505C188.06 19.7505 380.992 8.3756 357.173 173.826C333.354 339.277 204.733 277.233 164.24 263.79C123.749 250.347 32.0465 299.982 4.65514 237.938C-22.7371 175.894 -6.06387 14.58 188.06 19.7505Z" fill="#B8D6FF"/>
</g>
</g>
<mask id="mask2_1328_730" style="mask-type:luminance" maskUnits="userSpaceOnUse" x="7" y="324" width="342" height="22">
<path d="M7.04584 324.562H348.466V345.616H7.04584V324.562Z" fill="white"/>
</mask>
<g mask="url(#mask2_1328_730)">
<g opacity="0.199997">
<path d="M348.466 335.089C348.466 340.903 272.036 345.616 177.756 345.616C83.4754 345.616 7.04578 340.903 7.04578 335.089C7.04578 329.275 83.4754 324.562 177.756 324.562C272.036 324.562 348.466 329.275 348.466 335.089Z" fill="#001936"/>
</g>
</g>
</g>
<mask id="mask3_1328_730" style="mask-type:luminance" maskUnits="userSpaceOnUse" x="-25" y="0" width="397" height="363">
<path d="M-25 6.10352e-05H372V363H-25V6.10352e-05Z" fill="white"/>
</mask>
<g mask="url(#mask3_1328_730)">
<path d="M323.852 274.468C323.852 274.468 301.62 332.548 299.238 332.548C296.856 332.548 249.216 346.342 291.298 328.918C291.298 328.918 296.062 265.756 303.208 262.852C310.354 259.948 323.852 274.468 323.852 274.468Z" fill="#AA534F"/>
<path d="M307.181 316.298C314.417 299.116 323.852 274.468 323.852 274.468C323.852 274.468 310.354 259.948 303.208 262.852C298.579 264.733 294.949 291.899 292.968 310.803C297.748 312.541 302.463 314.42 307.181 316.298Z" fill="#863F38"/>
<path d="M284.416 332.064C284.416 332.064 282.564 335.936 300.032 331.822L299.238 334C299.238 334 250.01 344.648 284.416 332.064Z" fill="#001936"/>
<path d="M310.411 249.892C310.411 249.892 344.797 302.789 343.266 304.457C341.735 306.126 322.683 348.367 335.122 307.688C335.122 307.688 285.253 263.764 287.412 256.892C289.57 250.02 310.411 249.892 310.411 249.892Z" fill="#AA534F"/>
<path d="M333.337 314.53C333.337 314.53 335.391 318.317 343.168 303.435L344.483 305.391C344.483 305.391 321.774 346.722 333.337 314.53Z" fill="#001936"/>
<path d="M330.414 281.372C321.194 266.48 310.411 249.893 310.411 249.893C310.411 249.893 289.57 250.019 287.412 256.891C286.014 261.344 306.447 281.342 321.014 294.878C321.014 294.878 326.68 289.163 330.414 281.372Z" fill="#863F38"/>
<path d="M332.189 170.287C332.189 170.287 311.148 148.87 298.841 162.301C286.534 175.732 267.478 220.018 270.257 238.168C271.89 248.837 283.124 260.254 292.109 267.856L284.549 306.775C284.549 306.775 315.515 314.398 313.53 314.398C312.339 314.398 344.099 236.353 347.275 211.669C350.451 186.985 332.189 170.287 332.189 170.287Z" fill="#00387A"/>
<mask id="mask4_1328_730" style="mask-type:luminance" maskUnits="userSpaceOnUse" x="292" y="157" width="43" height="19">
<path d="M292.767 157.875H334.045V175.146H292.767V157.875Z" fill="white"/>
</mask>
<g mask="url(#mask4_1328_730)">
<g opacity="0.199997">
<path d="M316.094 175.142C321.998 175.078 328.404 174.322 334.045 172.204C332.916 170.955 332.189 170.287 332.189 170.287C332.189 170.287 311.148 148.87 298.841 162.301C296.941 164.373 294.882 167.182 292.767 170.514C299.785 174.001 308.461 175.226 316.094 175.142Z" fill="#352836"/>
</g>
</g>
<mask id="mask5_1328_730" style="mask-type:luminance" maskUnits="userSpaceOnUse" x="269" y="185" width="36" height="83">
<path d="M269.984 185.509H304.372V267.7H269.984V185.509Z" fill="white"/>
</mask>
<g mask="url(#mask5_1328_730)">
<g opacity="0.199997">
<path d="M284.57 185.509C275.818 203.706 268.457 226.414 270.257 238.168C271.879 248.765 282.972 260.098 291.926 267.7C295.105 247.939 300.913 220.518 304.372 204.7C295.779 200.158 288.63 193.701 284.57 185.509Z" fill="#352836"/>
</g>
</g>
<path d="M271.448 127.453L258.744 149.959C258.744 149.959 236.512 138.706 233.336 138.706C230.16 138.706 215.074 139.069 222.22 141.973C222.22 141.973 219.044 143.788 222.617 144.514C222.617 144.514 219.441 147.055 223.411 147.418L232.542 147.055C232.542 147.055 250.804 162.301 259.935 164.479C269.066 166.657 283.755 138.343 283.755 138.343L271.448 127.453Z" fill="#AA534F"/>
<path d="M273.524 143.614C275.545 144.275 277.576 144.947 279.624 145.577C282.129 141.476 283.755 138.343 283.755 138.343L271.448 127.453L264.488 139.783C267.303 141.375 270.389 142.589 273.524 143.614Z" fill="#863F38"/>
<path d="M287.328 116.563C287.328 116.563 275.418 114.748 271.051 120.556C266.684 126.364 264.699 135.802 264.699 135.802L281.77 143.425L287.328 116.563Z" fill="#4B9A5C"/>
<mask id="mask6_1328_730" style="mask-type:luminance" maskUnits="userSpaceOnUse" x="264" y="125" width="19" height="19">
<path d="M264.699 125.443H282.789V143.425H264.699V125.443Z" fill="white"/>
</mask>
<g mask="url(#mask6_1328_730)">
<g opacity="0.100006">
<path d="M280.805 137.169C276.472 134.078 271.461 130.1 268.191 125.443C265.808 130.531 264.699 135.802 264.699 135.802L281.77 143.425L282.789 138.499C282.111 138.067 281.445 137.625 280.805 137.169Z" fill="#0D1122"/>
</g>
</g>
<path d="M203.861 136.041C204.326 137.217 203.66 138.515 202.373 138.939L193.01 142.029C191.723 142.454 190.304 141.845 189.839 140.669L186.08 131.146C185.616 129.97 186.282 128.672 187.568 128.247L196.932 125.157C198.218 124.732 199.637 125.341 200.102 126.518L203.861 136.041Z" fill="#D3A458"/>
<path d="M230.288 159.505C231.032 161.387 229.965 163.464 227.907 164.143L215.294 132.196C217.353 131.517 219.624 132.492 220.367 134.374L230.288 159.505ZM211.369 128.921L182.02 138.608C176.874 140.306 174.208 145.497 176.065 150.202L185.146 173.204C187.003 177.909 192.681 180.346 197.826 178.648L227.176 168.961C232.322 167.262 234.987 162.071 233.13 157.367L224.049 134.364C222.192 129.66 216.514 127.222 211.369 128.921Z" fill="#F9C466"/>
<path d="M201.894 126.372C202.299 127.397 201.718 128.528 200.597 128.898L187.245 133.305C186.124 133.675 184.887 133.144 184.483 132.119L183.375 129.314C182.97 128.289 183.551 127.158 184.672 126.788L198.024 122.381C199.146 122.011 200.383 122.542 200.787 123.567L201.894 126.372Z" fill="#001936"/>
<path d="M220.649 140.176C220.649 140.176 225.687 138.583 226.489 139.487C227.289 140.392 222.298 141.683 222.486 141.769C222.674 141.855 227.901 140.779 228.372 141.769C228.843 142.759 222.816 144.568 222.816 144.568C222.816 144.568 228.513 143.147 228.89 144.223C229.266 145.3 222.957 146.892 222.957 146.892L222.617 144.514L222.25 141.726L220.649 140.176Z" fill="#AA534F"/>
<path d="M227.712 138.971C227.712 138.971 223.851 136.602 223.804 135.741C223.758 134.88 234.116 138.884 234.116 138.884L227.712 138.971Z" fill="#AA534F"/>
<path d="M304.406 114.765C303.638 116.083 307.507 85.6165 307.507 85.6165L289.51 96.7177C289.51 96.7177 291.075 116.16 289.109 116.246C288.302 116.281 285.19 117.301 281.799 118.49C282.6 122.118 284.148 122.902 285.495 126.375C295.612 126.325 306.505 126.111 312.717 117.628C309.195 116.669 305.444 112.982 304.406 114.765Z" fill="#863F38"/>
<path d="M287.328 116.563L286.534 114.022L306.384 110.029L307.178 114.385C307.178 114.385 330.998 121.645 334.174 137.98C337.35 154.315 335.762 164.842 332.189 170.287C332.189 170.287 304.399 173.917 292.489 168.472C280.579 163.027 268.272 122.371 274.624 118.741C280.976 115.111 287.328 116.563 287.328 116.563Z" fill="#4B9A5C"/>
<mask id="mask7_1328_730" style="mask-type:luminance" maskUnits="userSpaceOnUse" x="280" y="151" width="56" height="21">
<path d="M280.038 151.548H335.524V171.472H280.038V151.548Z" fill="white"/>
</mask>
<g mask="url(#mask7_1328_730)">
<g opacity="0.100006">
<path d="M313.31 161.817C303.794 161.299 292.115 160.269 284.192 154.884C282.711 153.878 281.326 152.758 280.037 151.548C283.594 159.577 288.068 166.45 292.489 168.472C304.399 173.917 332.189 170.287 332.189 170.287C333.772 167.873 334.962 164.457 335.524 159.984C328.416 161.972 320.935 162.232 313.31 161.817Z" fill="#0D1122"/>
</g>
</g>
<path d="M312.339 149.233L332.586 147.781C332.586 147.781 327.425 180.451 321.47 191.704C315.515 202.957 288.122 247.243 298.841 222.559C298.841 222.559 284.946 241.798 296.856 222.196C296.856 222.196 283.755 237.805 295.268 221.107C295.268 221.107 281.77 235.264 296.062 215.299C296.062 215.299 285.343 220.018 297.253 212.032L308.766 184.444L312.339 149.233Z" fill="#AA534F"/>
<path d="M332.142 150.453C332.43 148.767 332.586 147.781 332.586 147.781L312.339 149.233L312.149 151.104C318.813 151.083 325.482 150.825 332.142 150.453Z" fill="#863F38"/>
<path d="M291.172 66.1491C291.172 66.1491 301.29 60.7528 316.045 69.6187C325.84 75.5044 325.32 94.2889 304.241 106.624C279.1 121.336 291.172 66.1491 291.172 66.1491Z" fill="#001936"/>
<path d="M305.147 76.164C305.147 76.164 293.787 68.0757 284.131 72.0614C271.872 77.1224 273.155 88.9453 272.913 99.0744C272.591 112.479 284.183 115.025 287.671 115.192C292.87 115.438 313.864 114.302 305.147 76.164Z" fill="#AA534F"/>
<path d="M306.231 88.7287C306.231 88.7287 306.706 86.6676 310.524 88.3178C315.365 90.4115 312.75 101.018 307.309 100.749C301.869 100.48 306.231 88.7287 306.231 88.7287Z" fill="#AA534F"/>
<path d="M306.231 88.7287C306.231 88.7287 306.893 95.9814 305.026 96.0874C303.158 96.1934 301.135 82.9374 306.388 82.9831C311.64 83.0281 306.231 88.7287 306.231 88.7287Z" fill="#001936"/>
<path d="M306.231 88.7287C306.231 88.7287 302.308 72.5861 279.243 75.2643C279.243 75.2643 282.585 69.2472 289.893 66.4332C299.847 62.6007 314.677 78.0565 310.524 88.3178C310.524 88.3178 308.67 88.4993 306.231 88.7287Z" fill="#4B9A5C"/>
<path d="M316.045 73.8587C316.045 73.8587 314.78 54.5849 319.84 54.5849C324.898 54.5849 319.418 70.7747 319.418 70.7747C319.418 70.7747 323.633 47.6465 335.859 51.1153C348.085 54.5849 327.006 70.7747 327.006 70.7747C327.006 70.7747 336.703 62.6798 340.076 65.3783C343.448 68.0768 326.163 73.4732 326.163 73.4732C326.163 73.4732 339.232 70.0036 340.919 75.7862C342.604 81.5681 315.624 80.7971 316.045 73.8587Z" fill="#001936"/>
<path d="M273.569 85.0318C273.569 85.0318 273.598 84.8568 273.726 84.5853C273.847 84.3094 274.073 83.9435 274.431 83.5529C274.791 83.1681 275.308 82.7805 275.972 82.4843C276.137 82.4102 276.32 82.3594 276.502 82.3006C276.682 82.2367 276.873 82.188 277.075 82.1692C277.274 82.1438 277.476 82.1053 277.68 82.0958L278.303 82.1198C278.721 82.1336 279.114 82.2744 279.5 82.3761C279.862 82.5242 280.207 82.7013 280.511 82.8872C280.792 83.0999 281.048 83.3177 281.277 83.5268C281.479 83.7562 281.643 83.99 281.789 84.2012C281.86 84.3101 281.93 84.4096 281.987 84.5105C282.032 84.618 282.074 84.7203 282.113 84.8162C282.195 85.0035 282.245 85.1792 282.288 85.3186C282.372 85.5988 282.392 85.7687 282.392 85.7687C282.392 85.7687 282.203 85.7099 281.92 85.5915C281.781 85.5313 281.608 85.4638 281.435 85.373C281.263 85.2801 281.056 85.1951 280.836 85.1138C280.619 85.0274 280.402 84.9229 280.178 84.8234C279.941 84.7486 279.705 84.6681 279.478 84.5715C279.238 84.5091 279.001 84.4561 278.773 84.3813C278.532 84.3755 278.309 84.2724 278.071 84.2862L277.719 84.2535C277.601 84.2608 277.482 84.2608 277.362 84.2622C277.122 84.247 276.879 84.3065 276.632 84.313C276.389 84.3631 276.136 84.3784 275.898 84.4415C275.653 84.4829 275.42 84.5468 275.193 84.5984C274.743 84.7087 274.339 84.8183 274.047 84.9011C273.743 84.9839 273.569 85.0318 273.569 85.0318Z" fill="#001936"/>
<path d="M279.649 104.993C279.649 104.993 292.672 105.342 293.515 105.213C294.358 105.083 286.273 110.88 279.649 104.993Z" fill="#A0CDBC"/>
<path d="M280.539 91.7114C280.539 91.7114 280.515 91.8718 280.473 92.1535C280.42 92.433 280.329 92.8345 280.165 93.3042C280.064 93.5336 279.984 93.7943 279.829 94.0477C279.755 94.1754 279.685 94.3097 279.599 94.4426C279.5 94.5696 279.398 94.6996 279.294 94.831C279.053 95.0735 278.794 95.3414 278.418 95.5004C278.317 95.5447 278.267 95.5926 278.122 95.6311L277.873 95.7008C277.729 95.7559 277.485 95.7763 277.266 95.7951C276.837 95.7973 276.384 95.6935 276.054 95.443C275.708 95.2165 275.491 94.9007 275.337 94.6038C275.172 94.3054 275.088 94.0005 275.028 93.7159C274.963 93.4313 274.938 93.1598 274.933 92.9107C274.918 92.4134 274.97 92.004 275.037 91.723C275.099 91.442 275.158 91.2889 275.158 91.2889C275.158 91.2889 275.161 91.9459 275.374 92.8635C275.483 93.3173 275.645 93.8458 275.939 94.3148C276.081 94.5508 276.275 94.7533 276.493 94.892C276.701 95.0495 276.976 95.0895 277.237 95.0902C277.366 95.0749 277.478 95.0953 277.663 95.0343L277.916 94.9704C277.941 94.9697 278.03 94.9145 278.084 94.8913C278.344 94.7903 278.573 94.6074 278.785 94.4215C278.984 94.2161 279.178 94.0106 279.331 93.7856C279.499 93.5728 279.621 93.342 279.76 93.1438C279.999 92.7249 280.192 92.3677 280.326 92.1129C280.461 91.8573 280.539 91.7114 280.539 91.7114Z" fill="#142230"/>
<path d="M293.643 92.6401C293.643 92.6401 293.618 92.8006 293.576 93.0823C293.524 93.3618 293.432 93.7633 293.268 94.233C293.168 94.4624 293.088 94.723 292.932 94.9764C292.858 95.1042 292.788 95.2385 292.703 95.3714C292.603 95.4984 292.502 95.6284 292.398 95.7598C292.157 96.0023 291.898 96.2701 291.521 96.4291C291.42 96.4734 291.37 96.5213 291.226 96.5598L290.976 96.6295C290.832 96.6847 290.588 96.705 290.37 96.7246C289.94 96.7261 289.488 96.6223 289.157 96.3725C288.811 96.1453 288.594 95.8295 288.44 95.5325C288.275 95.2341 288.192 94.9292 288.132 94.6446C288.066 94.36 288.042 94.0885 288.036 93.8395C288.021 93.3422 288.074 92.9327 288.14 92.6518C288.202 92.3708 288.262 92.2176 288.262 92.2176C288.262 92.2176 288.264 92.8746 288.477 93.7923C288.587 94.2461 288.749 94.7746 289.042 95.2436C289.184 95.4795 289.379 95.6821 289.597 95.8208C289.805 95.9783 290.079 96.0182 290.341 96.019C290.47 96.0037 290.582 96.024 290.768 95.9631L291.019 95.8992C291.045 95.8984 291.134 95.8433 291.188 95.82C291.447 95.7191 291.677 95.5362 291.889 95.3503C292.087 95.1448 292.281 94.9394 292.434 94.7143C292.603 94.5016 292.725 94.2707 292.863 94.0725C293.102 93.6536 293.296 93.2965 293.43 93.0416C293.565 92.7861 293.643 92.6401 293.643 92.6401Z" fill="#142230"/>
<path d="M308.058 98.6855C308.277 98.4234 308.475 98.1526 308.64 97.8709C308.805 97.5892 308.917 97.2858 308.954 96.9997C308.969 96.8581 308.966 96.7158 308.916 96.5946C308.905 96.53 308.871 96.4741 308.832 96.4211C308.801 96.3645 308.769 96.31 308.71 96.2672C308.654 96.2236 308.621 96.1684 308.553 96.1329L308.362 96.0218C308.306 95.979 308.218 95.963 308.148 95.9318L307.929 95.8461L307.77 95.7844L307.73 95.637C307.525 94.874 307.382 94.1124 307.311 93.3291C307.271 92.9377 307.265 92.5421 307.285 92.1413C307.309 91.7413 307.36 91.3304 307.538 90.918C307.629 90.7133 307.762 90.5006 307.978 90.3292C308.193 90.1535 308.505 90.0693 308.772 90.0875C309.061 90.1078 309.233 90.1753 309.448 90.2327C309.678 90.3045 309.885 90.404 310.076 90.5194C310.263 90.6436 310.435 90.7844 310.579 90.9463C310.716 91.1133 310.832 91.2912 310.91 91.4814C311.075 91.8567 311.136 92.2589 311.079 92.643C311.02 92.2626 310.889 91.8974 310.675 91.5903C310.574 91.4335 310.437 91.3021 310.3 91.1801C310.16 91.0603 310.002 90.9638 309.836 90.881C309.66 90.8069 309.487 90.7489 309.315 90.7075C309.128 90.6719 308.893 90.6225 308.762 90.6334C308.471 90.6472 308.296 90.8215 308.176 91.138C307.963 91.7696 307.991 92.5421 308.043 93.2775C308.105 94.0195 308.215 94.7752 308.353 95.5107L308.155 95.3016L308.421 95.4243C308.508 95.4715 308.599 95.4976 308.679 95.5637L308.923 95.7394C309.004 95.7953 309.064 95.886 309.133 95.9594C309.207 96.0312 309.255 96.1213 309.297 96.2156C309.347 96.3064 309.38 96.4 309.388 96.5002C309.431 96.6955 309.404 96.8901 309.359 97.0665C309.266 97.4244 309.055 97.7199 308.832 97.9849C308.604 98.2492 308.346 98.4858 308.058 98.6855Z" fill="#863F38"/>
<path d="M281.725 101.722C281.355 101.795 281.023 101.795 280.705 101.767C280.388 101.739 280.09 101.677 279.804 101.593C279.516 101.51 279.243 101.402 278.983 101.268C278.853 101.199 278.722 101.135 278.603 101.049C278.483 100.964 278.355 100.892 278.241 100.796L277.8 100.423L277.918 100.107C278.693 98.0324 279.482 95.9626 280.296 93.8993C281.118 91.8389 281.941 89.7785 282.835 87.7385C282.291 89.8794 281.675 91.9986 281.058 94.1186C280.433 96.2356 279.784 98.3461 279.119 100.452L278.797 99.7625C278.95 99.7864 279.09 99.8351 279.237 99.8707C279.385 99.9048 279.52 99.96 279.659 100.012C279.932 100.119 280.194 100.251 280.441 100.409C280.688 100.565 280.924 100.743 281.142 100.955C281.359 101.169 281.562 101.409 281.725 101.722Z" fill="#863F38"/>
<path d="M286.407 84.1636C286.407 84.1636 286.504 83.9727 286.749 83.6968C286.868 83.5538 287.025 83.3941 287.219 83.2213C287.42 83.0601 287.641 82.8554 287.92 82.6891C288.19 82.5076 288.503 82.3363 288.853 82.1824C289.197 82.0147 289.593 81.9014 290.002 81.7787C290.422 81.6967 290.859 81.582 291.321 81.5769C291.551 81.5682 291.783 81.5442 292.016 81.5507L292.718 81.611C293.189 81.6422 293.637 81.7932 294.08 81.9072C294.516 82.0393 294.91 82.2513 295.294 82.4277C295.661 82.6354 295.981 82.8808 296.285 83.0993C296.588 83.32 296.806 83.5973 297.027 83.8231C297.241 84.0569 297.426 84.2747 297.547 84.5005C297.684 84.7117 297.782 84.9099 297.865 85.0682C298.029 85.3862 298.095 85.5793 298.095 85.5793C298.095 85.5793 297.872 85.5118 297.528 85.3724C297.357 85.302 297.148 85.2228 296.932 85.1161C296.719 85.0036 296.447 84.923 296.177 84.817C295.899 84.7219 295.635 84.5731 295.325 84.4845C295.029 84.3865 294.718 84.2827 294.396 84.176C294.066 84.1084 293.747 84.001 293.415 83.9306C293.074 83.8957 292.75 83.7738 292.403 83.7694L291.894 83.7062L291.38 83.6852C291.038 83.6511 290.697 83.691 290.359 83.6765C290.025 83.7091 289.688 83.7019 289.37 83.7454C289.049 83.7723 288.74 83.805 288.451 83.8478C287.867 83.9168 287.362 84.0017 286.996 84.0634C286.622 84.1273 286.407 84.1636 286.407 84.1636Z" fill="#001936"/>
<path d="M275.478 332.415C275.513 335.052 273.203 337.216 270.319 337.248C267.434 337.28 265.067 335.168 265.032 332.531L264.827 317.143C264.792 314.505 267.102 312.341 269.987 312.309C272.871 312.277 275.238 314.389 275.273 317.026L275.478 332.415Z" fill="#001817"/>
<path d="M202.356 333.227C202.391 335.865 200.081 338.029 197.196 338.061C194.312 338.093 191.945 335.981 191.91 333.343L191.705 317.955C191.67 315.318 193.98 313.153 196.864 313.121C199.749 313.09 202.116 315.201 202.151 317.839L202.356 333.227Z" fill="#001817"/>
<path d="M269.548 321.501C269.627 327.451 264.415 332.334 257.907 332.406L209.005 332.95C202.497 333.022 197.157 328.257 197.078 322.306L191.808 220.531C191.728 214.58 196.94 209.698 203.448 209.626L260.185 208.995C266.692 208.923 272.033 213.688 272.111 219.639L269.548 321.501Z" fill="#4B9A5C"/>
<mask id="mask8_1328_730" style="mask-type:luminance" maskUnits="userSpaceOnUse" x="191" y="208" width="82" height="23">
<path d="M191.806 208.994H272.112V230.646H191.806V208.994Z" fill="white"/>
</mask>
<g mask="url(#mask8_1328_730)">
<g opacity="0.100006">
<path d="M271.857 229.762L272.112 219.639C272.032 213.688 266.693 208.923 260.185 208.995L203.448 209.626C196.941 209.698 191.729 214.581 191.808 220.531L192.331 230.646L271.857 229.762Z" fill="#0D1122"/>
</g>
</g>
<path d="M281.546 217.117C281.568 218.765 280.124 220.118 278.322 220.137L185.613 221.168C183.81 221.188 182.331 219.868 182.309 218.219L182.166 207.474C182.144 205.826 183.588 204.473 185.391 204.453L278.099 203.423C279.902 203.402 281.382 204.723 281.403 206.371L281.546 217.117Z" fill="#4B9A5C"/>
<path d="M232.36 246.961L243.116 241.057L240.509 247.231L232.36 246.961Z" fill="#A0CDBC"/>
<path d="M228.282 237.606C228.282 237.606 229.152 237.597 230.521 239.461C231.89 241.326 234.883 246.426 234.883 246.426L240.39 244.196L241.628 242.23C241.628 242.23 239.277 237.846 237.376 237.577L228.282 237.606Z" fill="#A0CDBC"/>
<path d="M225.295 238.941C225.295 238.941 226.933 237.259 228.289 238.112C229.644 238.965 231.987 242.626 231.987 242.626L228.116 248.888L221.11 245.35L225.295 238.941Z" fill="#A0CDBC"/>
<path d="M237.251 254.753L237.832 266.211L233.124 261.183L237.251 254.753Z" fill="#A0CDBC"/>
<path d="M248.192 255.91C248.192 255.91 247.789 256.615 245.344 256.832C242.899 257.049 236.568 257.038 236.568 257.038L236.102 262.528L237.408 264.457C237.408 264.457 242.744 264.646 243.904 263.242L248.192 255.91Z" fill="#A0CDBC"/>
<path d="M248.325 252.872C248.325 252.872 249.165 254.988 247.701 255.675C246.237 256.361 241.601 256.509 241.601 256.509L237.41 250.422L244.14 246.462L248.325 252.872Z" fill="#A0CDBC"/>
<path d="M227.764 254.589L216.653 249.265L223.776 248.086L227.764 254.589Z" fill="#A0CDBC"/>
<path d="M221.152 262.642C221.152 262.642 220.69 261.968 221.718 259.928C222.747 257.889 225.952 252.897 225.952 252.897L221.004 249.759L218.523 249.815C218.523 249.815 215.652 253.933 216.392 255.557L221.152 262.642Z" fill="#A0CDBC"/>
<path d="M223.953 264.28C223.953 264.28 221.53 263.876 221.621 262.373C221.711 260.871 223.912 257.137 223.912 257.137L231.773 256.9L232.117 264.211L223.953 264.28Z" fill="#A0CDBC"/>
<path d="M61.9661 303.693C61.9661 303.693 60.2312 329.339 58.6884 329.829C52.8851 331.675 9.15158 341.839 50.5293 324.778L49.4026 306.113L61.9661 303.693Z" fill="#001936"/>
<path d="M60.1307 323.561C61.1455 315.827 61.9664 303.693 61.9664 303.693L49.4022 306.114L50.4058 322.732C53.5207 323.523 57.131 323.543 60.1307 323.561Z" fill="#000D1E"/>
<path d="M32.9698 333.69C31.7057 336.553 54.6015 331.129 58.689 329.829C58.8073 329.791 58.928 329.589 59.0479 329.274C53.8877 330.583 38.2785 333.839 32.9698 333.69Z" fill="#A0CDBC"/>
<path d="M88.6931 302.324C88.6931 302.324 91.0156 327.933 92.5687 328.396C98.4133 330.137 142.371 339.512 100.61 323.198L101.31 304.517L88.6931 302.324Z" fill="#001936"/>
<path d="M90.9832 322.155C89.7914 314.44 88.6933 302.324 88.6933 302.324L101.309 304.518L100.687 321.152C97.5917 321.998 93.9821 322.083 90.9832 322.155Z" fill="#000D1E"/>
<path d="M118.371 331.793C119.7 334.633 96.6849 329.622 92.5688 328.396C92.4489 328.36 92.3243 328.159 92.1964 327.848C97.386 329.063 113.067 332.037 118.371 331.793Z" fill="#A0CDBC"/>
<path d="M96.3783 163.962C96.3783 163.962 107.783 248.4 105.549 316.714C105.549 316.714 91.9185 320.23 88.3208 317.671C85.2369 301.471 85.6506 270.008 81.0248 246.56C76.6689 224.484 74.9451 206.449 74.9451 206.449L73.4857 204.996C73.4857 204.996 64.1118 311.726 62.0553 319.826C50.2334 322.384 46.4905 319.395 46.4905 319.395C46.4905 319.395 41.0945 185.901 44.3912 164.355C48.7106 136.125 96.3783 163.962 96.3783 163.962Z" fill="#4B9A5C"/>
<mask id="mask9_1328_730" style="mask-type:luminance" maskUnits="userSpaceOnUse" x="43" y="151" width="56" height="32">
<path d="M43.5499 151.706H98.4876V182.225H43.5499V151.706Z" fill="white"/>
</mask>
<g mask="url(#mask9_1328_730)">
<g opacity="0.100006">
<path d="M98.4876 181.408C97.2617 170.504 96.3788 163.962 96.3788 163.962C96.3788 163.962 48.711 136.125 44.3916 164.354C43.9907 166.972 43.7191 171.244 43.55 176.725C47.0094 178.535 91.614 184.351 98.4876 181.408Z" fill="#0D1122"/>
</g>
</g>
<mask id="mask10_1328_730" style="mask-type:luminance" maskUnits="userSpaceOnUse" x="74" y="195" width="32" height="124">
<path d="M74.0046 195.762H105.839V318.604H74.0046V195.762Z" fill="white"/>
</mask>
<g mask="url(#mask10_1328_730)">
<g opacity="0.100006">
<path d="M74.0052 204.099C74.5268 209.824 77.4329 228.353 81.0249 246.56C85.6508 270.008 85.2371 301.471 88.321 317.671C91.9194 320.229 105.549 316.715 105.549 316.715C106.924 274.693 103.138 226.579 100.02 195.762C92.426 200.067 82.8352 202.192 74.0052 204.099Z" fill="#0D1122"/>
</g>
</g>
<path d="M78.0847 90.1277C78.1291 81.2777 78.8707 69.6058 78.8707 69.6058L59.7933 64.7888C59.7933 64.7888 60.4309 80.6076 60.9819 90.2467C52.3003 92.9576 42.4547 98.0193 42.4547 98.0193L78.4404 106.359L91.2405 95.0049C91.2405 95.0049 84.8059 92.0363 78.0847 90.1277Z" fill="#FFB4A0"/>
<path d="M78.0847 90.1277C78.1291 81.2777 78.8707 69.6058 78.8707 69.6058L59.7933 64.7888C59.7933 64.7888 60.4309 80.6076 60.9819 90.2467C52.3003 92.9576 42.4547 98.0193 42.4547 98.0193L78.4404 106.359L95.4447 92.9678C95.4447 92.9678 84.8575 89.3378 78.0847 90.1277Z" fill="#F69C8E"/>
<path d="M58.1064 48.0066C58.1064 48.0066 63.1221 33.1636 76.304 35.518C89.486 37.8731 91.4297 53.5794 93.0956 64.2197C94.7614 74.8592 91.0192 84.4707 80.6949 85.6258C71.7258 86.6291 56.0475 85.0232 58.1064 48.0066Z" fill="#FFB4A0"/>
<path d="M58.7462 60.3775C58.7462 60.3775 57.9569 58.4035 54.7063 60.5836C50.5831 63.3497 54.8016 73.4839 59.7879 72.4399C64.7742 71.3952 58.7462 60.3775 58.7462 60.3775Z" fill="#FFB4A0"/>
<path d="M54.1832 39.4715C54.4627 39.4308 60.6853 38.9408 56.5525 39.3154C60.3391 43.0891 59.9659 44.0054 65.2103 44.91C67.9702 52.7181 62.5472 57.4792 62.5472 57.4792L64.0272 66.8852L60.0906 67.2671C60.0906 67.2671 60.1414 60.7338 57.1432 60.1726C54.1451 59.6115 53.2391 62.9387 53.2391 62.9387C46.934 55.6918 40.5979 41.4419 54.1832 39.4715Z" fill="#001936"/>
<path d="M90.1452 34.2147C92.6661 28.4895 88.3722 23.4162 88.3722 23.4162C89.1074 25.547 88.7605 27.4898 88.0435 29.0841C87.5512 27.4883 86.6611 25.7241 85.0803 23.9977C85.0803 23.9977 85.5313 29.7709 76.864 29.0485C68.1959 28.3269 53.0622 29.4311 52.4167 41.6715C51.7704 53.9118 64.6951 45.0336 64.6951 45.0336C64.6951 45.0336 90.5152 51.6554 94.2168 32.6407L90.1452 34.2147Z" fill="#001936"/>
<path d="M77.8646 55.3998C77.8646 55.3998 77.6518 55.365 77.2802 55.304C76.9181 55.2444 76.4155 55.1631 75.8375 55.0927C75.55 55.0521 75.2444 55.015 74.9252 54.9889C74.6115 54.9395 74.2757 54.9511 73.9454 54.9105C73.6095 54.9257 73.2713 54.8749 72.9322 54.9069C72.7623 54.9112 72.5924 54.9236 72.4225 54.9192L71.9167 54.9751C71.5737 54.9773 71.2505 55.0804 70.9155 55.1174C70.5828 55.1689 70.2707 55.2815 69.9436 55.3403C69.6268 55.4238 69.3283 55.5457 69.0226 55.6278C68.7113 55.7026 68.4525 55.8528 68.177 55.9421C67.9102 56.0452 67.637 56.1171 67.4258 56.2274C67.2115 56.3313 67.0034 56.4075 66.8343 56.4757C66.4929 56.6101 66.2706 56.6761 66.2706 56.6761C66.2706 56.6761 66.3365 56.4852 66.4992 56.1694C66.5818 56.0133 66.6803 55.8165 66.8168 55.6074C66.9375 55.3831 67.1265 55.1718 67.3385 54.9395C67.5608 54.7181 67.7752 54.4386 68.0849 54.2302C68.3898 54.0175 68.7066 53.7692 69.0797 53.5783C69.464 53.4098 69.8547 53.1942 70.2946 53.0817C70.7336 52.9677 71.1823 52.8385 71.6483 52.8116L72.3431 52.7623C72.5733 52.7659 72.8028 52.7869 73.0291 52.7993C73.257 52.8051 73.4793 52.8363 73.6937 52.8849C73.9096 52.9256 74.1224 52.9663 74.3281 53.0164C74.7283 53.1478 75.1189 53.2567 75.4556 53.4294C75.8002 53.5826 76.1058 53.7576 76.3734 53.9362C76.6466 54.1039 76.8657 54.3043 77.0618 54.4662C77.254 54.6368 77.408 54.7965 77.5263 54.9373C77.7685 55.211 77.8646 55.3998 77.8646 55.3998Z" fill="#001936"/>
<path d="M91.3561 55.044C91.3561 55.044 91.1869 54.9873 90.8916 54.8871C90.6089 54.7884 90.2151 54.657 89.7784 54.5176C89.5561 54.4537 89.3322 54.3731 89.0916 54.3158C88.8597 54.2388 88.6112 54.2003 88.373 54.1357C88.1292 54.1016 87.8902 54.0384 87.6513 54.0232C87.5329 54.0123 87.4138 54.008 87.2971 53.9855L86.9462 53.9884C86.7104 53.9513 86.4825 54.0305 86.2451 54.0196C86.0124 54.0559 85.7782 54.1103 85.5344 54.135C85.3026 54.2112 85.0644 54.2715 84.8254 54.3245C84.592 54.3949 84.372 54.4871 84.1505 54.5525C83.9274 54.6156 83.7122 54.6788 83.5344 54.7579C83.3557 54.8334 83.1794 54.8864 83.0357 54.9351C82.7459 55.0302 82.553 55.073 82.553 55.073C82.553 55.073 82.5871 54.9067 82.6935 54.6352C82.7483 54.5002 82.8126 54.3303 82.9103 54.151C82.9944 53.96 83.1175 53.7618 83.2874 53.5665C83.4542 53.3698 83.632 53.1462 83.8623 52.9415C84.1092 52.752 84.3831 52.556 84.6825 52.3672C85.0128 52.2234 85.3598 52.0572 85.7409 51.9577C86.1323 51.8866 86.5357 51.7849 86.9486 51.8111C87.1534 51.8191 87.3599 51.8227 87.5615 51.8416C87.7608 51.8728 87.9561 51.9222 88.1491 51.9635C88.346 51.9977 88.5231 52.0695 88.697 52.1414C88.8692 52.214 89.0471 52.2728 89.1988 52.3643C89.8252 52.7012 90.2961 53.1244 90.6224 53.5266C90.9424 53.9368 91.1369 54.3114 91.2354 54.5924C91.341 54.869 91.3561 55.044 91.3561 55.044Z" fill="#001936"/>
<path d="M81.5586 55.8583C82.0675 56.829 82.5137 57.8018 82.952 58.7768C83.1799 59.2611 83.3744 59.754 83.5952 60.2383L84.2272 61.6946L84.8632 63.1423C85.0736 63.6251 85.2816 64.1064 85.5198 64.5718L85.8533 65.2818C85.9676 65.5163 86.0582 65.7653 86.1939 65.9838C86.4401 66.4383 86.7053 66.8834 86.9355 67.3531L87.2118 67.9165L86.7307 68.1306C86.0034 68.4544 85.2642 68.7586 84.5178 69.0526C83.7643 69.3336 83.014 69.6204 82.2263 69.8469C82.8409 69.343 83.4927 68.898 84.1414 68.4486C84.7973 68.0108 85.4603 67.584 86.1352 67.1767L85.9295 67.9542C85.5913 67.5063 85.2872 67.0351 84.9648 66.5719C84.6401 66.1087 84.4249 65.6114 84.1581 65.1272L83.7897 64.3917L83.4816 63.6396C83.2879 63.135 83.0521 62.6421 82.8949 62.1281L82.4073 60.5918C82.2732 60.0728 82.1366 59.5558 82.0199 59.0339C81.7928 57.9899 81.6165 56.9314 81.5586 55.8583Z" fill="#F49178"/>
<path d="M58.5669 70.3808C58.2422 70.2095 57.9437 69.996 57.6721 69.7506C57.4029 69.506 57.1465 69.2265 56.9948 68.8751C56.921 68.7016 56.8583 68.5099 56.8646 68.3073C56.8559 68.2057 56.863 68.1048 56.8972 68.0053C56.9234 67.9059 56.944 67.802 57.0036 67.7164C57.0941 67.5254 57.2298 67.3737 57.3759 67.23C57.4434 67.1486 57.53 67.1015 57.6086 67.0397L57.8547 66.8662L57.7007 67.1029C57.7039 66.3217 57.6737 65.5253 57.6046 64.7478C57.5228 63.9782 57.4236 63.1767 57.1107 62.5306C57.0313 62.3759 56.9345 62.2351 56.8249 62.1465C56.713 62.0594 56.6066 62.0231 56.4581 62.0303C56.3668 62.0499 56.331 62.0412 56.2151 62.0862C56.1159 62.1218 56.0007 62.1523 55.9158 62.1922C55.7498 62.2641 55.5847 62.3541 55.4219 62.463C55.2726 62.5792 55.1305 62.707 55.0154 62.858C54.9018 63.009 54.7923 63.1709 54.7224 63.3509C54.5684 63.7067 54.5096 64.1038 54.5167 64.5053C54.3929 64.1176 54.3754 63.6958 54.4643 63.2834C54.5033 63.0758 54.5827 62.8725 54.6859 62.6765C54.7954 62.4834 54.9415 62.3084 55.1051 62.1451L55.3751 61.9244L55.6911 61.7378C55.7967 61.6804 55.8904 61.6477 55.9904 61.6013C56.0714 61.5577 56.2516 61.5062 56.3731 61.4815C56.6582 61.4234 57.0091 61.5076 57.2338 61.6782C57.4649 61.8438 57.6094 62.0463 57.7301 62.2452C57.9635 62.646 58.077 63.0591 58.1676 63.4671C58.2557 63.8758 58.3184 64.2839 58.347 64.6919C58.4145 65.5093 58.4105 66.3152 58.3462 67.1327L58.3351 67.2684L58.1922 67.3694C58.0643 67.4601 57.9055 67.5276 57.7912 67.6264C57.6737 67.7229 57.5617 67.8231 57.4927 67.9429C57.4411 67.9973 57.4276 68.0634 57.4021 68.1266C57.3712 68.1883 57.3537 68.2543 57.3529 68.324C57.3251 68.4598 57.3513 68.6086 57.3894 68.7546C57.476 69.0464 57.6364 69.3448 57.8484 69.6141C58.0596 69.8842 58.3033 70.139 58.5669 70.3808Z" fill="#F49178"/>
<path d="M70.955 62.2727C70.955 62.2727 71.0138 62.4208 71.1162 62.6807C71.1646 62.8107 71.2234 62.9682 71.2909 63.149C71.3822 63.3152 71.4846 63.4982 71.5823 63.6971C71.6926 63.8917 71.8681 64.0746 72.0063 64.2837C72.1008 64.3687 72.1976 64.4565 72.2961 64.5451C72.3874 64.6409 72.4938 64.72 72.6169 64.7818C72.836 64.9422 73.1076 65.0155 73.3704 65.0881C73.5085 65.0983 73.6459 65.1302 73.784 65.1302C73.9222 65.1099 74.0619 65.1056 74.1977 65.0823L74.5963 64.9589L74.956 64.7542C75.16 64.5756 75.3816 64.4093 75.5189 64.1799C75.7023 63.9803 75.7603 63.7189 75.8889 63.5025C75.9382 63.2608 76.0239 63.0328 76.0588 62.8128C76.0739 62.5907 76.0978 62.3845 76.1192 62.1979C76.1232 62.0128 76.1057 61.8502 76.1049 61.7137C76.1001 61.4378 76.0978 61.2803 76.0978 61.2803C76.0978 61.2803 76.1565 61.4284 76.2597 61.6883C76.3042 61.8211 76.3788 61.9809 76.4217 62.1725C76.4527 62.3656 76.4868 62.5871 76.5146 62.8324C76.5289 63.0771 76.49 63.3472 76.4638 63.6347C76.3598 63.9069 76.3296 64.23 76.1224 64.503C75.9667 64.7992 75.719 65.0649 75.434 65.3023L74.9425 65.5985C74.7591 65.6668 74.5693 65.7285 74.3795 65.788C74.1834 65.8207 73.9802 65.8272 73.7817 65.8432C73.5832 65.8388 73.3862 65.796 73.1925 65.7698C72.8185 65.6697 72.4676 65.5114 72.1976 65.2914C71.8864 65.1092 71.7276 64.8159 71.5235 64.5945C71.387 64.3331 71.2409 64.0964 71.1638 63.8576C71.0932 63.6151 71.04 63.3944 70.9939 63.2027C70.9661 63.0118 70.9709 62.8448 70.9622 62.7069C70.9574 62.431 70.955 62.2727 70.955 62.2727Z" fill="#142230"/>
<path d="M85.3721 60.095C85.3721 60.095 85.4308 60.2431 85.5333 60.503C85.5817 60.633 85.6404 60.7905 85.7079 60.9713C85.7992 61.1375 85.9017 61.3205 85.9993 61.5194C86.1097 61.714 86.2852 61.8969 86.4233 62.106C86.5178 62.191 86.6147 62.2781 86.7131 62.3674C86.8044 62.4632 86.9108 62.5423 87.0339 62.6041C87.2531 62.7645 87.5246 62.8378 87.7874 62.9104C87.9256 62.9206 88.0629 62.9525 88.2011 62.9525C88.3392 62.9322 88.479 62.9279 88.6148 62.9046L89.0134 62.7812L89.373 62.5765C89.5771 62.3979 89.7986 62.2316 89.936 62.0022C90.1194 61.8026 90.1774 61.5412 90.306 61.3248C90.3552 61.0831 90.441 60.8551 90.4759 60.6351C90.491 60.413 90.5148 60.2068 90.5362 60.0202C90.5402 59.8351 90.5227 59.6725 90.522 59.536C90.5172 59.2601 90.5148 59.1026 90.5148 59.1026C90.5148 59.1026 90.5736 59.2507 90.6768 59.5106C90.7212 59.6434 90.7959 59.8031 90.8388 59.9948C90.8697 60.1879 90.9039 60.4094 90.9317 60.6547C90.946 60.8994 90.907 61.1695 90.8808 61.457C90.7768 61.7292 90.7467 62.0523 90.5394 62.3253C90.3838 62.6215 90.1361 62.8872 89.851 63.1246L89.3595 63.4208C89.1761 63.489 88.9864 63.5508 88.7966 63.6103C88.6005 63.643 88.3972 63.6495 88.1987 63.6655C88.0002 63.6611 87.8033 63.6183 87.6096 63.5921C87.2356 63.492 86.8846 63.3337 86.6147 63.1137C86.3034 62.9315 86.1446 62.6382 85.9406 62.4167C85.804 62.1554 85.6579 61.9187 85.5809 61.6799C85.5102 61.4374 85.457 61.2167 85.411 61.025C85.3832 60.8341 85.388 60.6671 85.3792 60.5291C85.3745 60.2533 85.3721 60.095 85.3721 60.095Z" fill="#142230"/>
<path d="M73.453 74.5909C73.453 74.5909 71.9984 70.1035 74.9076 69.355C77.816 68.6073 78.7514 73.4272 78.7514 73.4272C78.7514 73.4272 75.2189 72.8456 73.453 74.5909Z" fill="#EE5E5E"/>
<path d="M86.0608 76.3247C86.0608 76.3247 86.1648 76.3305 86.0513 76.2484C85.9711 76.1795 85.8282 76.0996 85.6535 75.9972C85.297 75.7961 84.7682 75.5399 84.133 75.2625C83.4922 74.9917 82.7411 74.705 81.9257 74.4588C81.5199 74.3296 81.0896 74.2374 80.6608 74.1336C80.2289 74.0349 79.7858 73.9615 79.342 73.9151C78.4559 73.8076 77.5634 73.7931 76.7265 73.8679C75.8897 73.9463 75.1131 74.1125 74.443 74.2948C73.7784 74.4864 73.2202 74.6868 72.828 74.8371C72.4318 74.9903 72.2047 75.0774 72.2047 75.0774C72.2047 75.0774 72.354 74.8944 72.6597 74.6106C72.9646 74.3274 73.4322 73.9398 74.0817 73.576C74.7265 73.2087 75.5578 72.8638 76.5074 72.6714C77.4546 72.4718 78.5122 72.4231 79.5381 72.5502C80.0502 72.6206 80.5544 72.7223 81.0403 72.8508C81.5271 72.9749 81.9836 73.1571 82.4171 73.335C83.2818 73.7053 84.0218 74.1561 84.5983 74.6004C85.1795 75.0382 85.5995 75.4709 85.8575 75.7983C85.9901 75.9595 86.0719 76.1047 86.1196 76.2078C86.1362 76.2506 86.168 76.3247 86.1069 76.337C86.0711 76.3341 86.0608 76.3247 86.0608 76.3247Z" fill="#F49178"/>
<path d="M84.644 89.8799C84.644 89.8799 104.973 87.8863 107.619 102.164C110.266 116.442 110.001 120.314 110.001 120.314L90.1512 117.652L84.644 89.8799Z" fill="#00387A"/>
<path d="M101.826 101.381C100.635 92.3129 90.5262 90.3128 84.6443 89.8801C82.0003 93.2044 78.3725 95.6394 73.3298 95.7832C67.6336 95.9443 62.3948 94.0887 59.6119 90.1516C50.6944 91.1019 41.9017 93.4527 39.8937 98.9616C35.6593 110.578 39.3641 174.466 39.3641 174.466C39.3641 174.466 74.9623 180.031 104.142 174.949C104.142 174.949 103.414 113.482 101.826 101.381Z" fill="#00387A"/>
<mask id="mask11_1328_730" style="mask-type:luminance" maskUnits="userSpaceOnUse" x="37" y="108" width="68" height="70">
<path d="M37.8741 108.244H104.142V177.089H37.8741V108.244Z" fill="white"/>
</mask>
<g mask="url(#mask11_1328_730)">
<g opacity="0.199997">
<path d="M37.8741 129.933C38.0044 151.006 39.3645 174.465 39.3645 174.465C39.3645 174.465 74.9619 180.031 104.141 174.949C104.141 174.949 103.588 128.242 102.395 108.244C80.9177 115.55 59.4257 122.817 37.8741 129.933Z" fill="#352836"/>
</g>
</g>
<path d="M59.8173 146.767C59.8173 146.767 59.0615 144.695 62.6884 143.313C66.3146 141.931 103.941 132.951 106.358 133.227C108.776 133.503 137.852 136.748 138.35 138.165C138.847 139.583 103.487 150.084 103.487 150.084L59.8173 146.767Z" fill="#DDEEFF"/>
<path d="M105.452 152.847C105.452 152.847 64.2427 152.686 61.0667 149.297C57.8907 145.909 57.8375 143.449 75.8351 146.353C93.8319 149.257 104.243 148.84 104.243 148.84C104.243 148.84 137.291 134.777 138.35 138.166C139.408 141.553 142.927 140.688 105.452 152.847Z" fill="#B8D6FF"/>
<path d="M138.35 138.165C137.291 134.777 104.243 148.84 104.243 148.84C104.243 148.84 104.127 148.844 103.91 148.849C104.595 150.122 105.215 151.421 105.788 152.738C142.901 140.695 139.405 141.543 138.35 138.165Z" fill="#AAC6EA"/>
<path d="M58.6085 139.03C58.6085 139.03 57.8526 136.957 61.4796 135.576C65.1058 134.194 102.732 125.213 105.15 125.489C107.567 125.766 136.644 129.01 137.141 130.428C137.638 131.845 102.278 142.346 102.278 142.346L58.6085 139.03Z" fill="#DDEEFF"/>
<path d="M104.243 145.109C104.243 145.109 63.0338 144.948 59.8578 141.56C56.6818 138.172 56.6286 135.711 74.6262 138.615C92.623 141.519 103.034 141.103 103.034 141.103C103.034 141.103 136.082 127.04 137.141 130.428C138.199 133.816 141.718 132.95 104.243 145.109Z" fill="#B8D6FF"/>
<path d="M137.141 130.428C136.082 127.04 103.035 141.102 103.035 141.102C103.035 141.102 102.919 141.107 102.701 141.112C103.386 142.384 104.006 143.683 104.579 145C141.692 132.957 138.196 133.806 137.141 130.428Z" fill="#AAC6EA"/>
<path d="M58.4457 132.711C58.4457 132.711 57.7144 130.887 61.2239 129.671C64.7333 128.454 101.144 120.548 103.483 120.791C105.823 121.035 133.959 123.891 134.44 125.138C134.921 126.386 100.705 135.63 100.705 135.63L58.4457 132.711Z" fill="#DDEEFF"/>
<path d="M102.606 138.063C102.606 138.063 62.7285 137.921 59.655 134.938C56.5814 131.956 56.5298 129.79 73.9454 132.346C91.361 134.903 101.436 134.535 101.436 134.535C101.436 134.535 133.415 122.156 134.44 125.139C135.465 128.121 138.869 127.359 102.606 138.063Z" fill="#B8D6FF"/>
<path d="M134.44 125.139C133.416 122.156 101.436 134.536 101.436 134.536C101.436 134.536 101.324 134.54 101.113 134.544C101.776 135.664 102.376 136.808 102.93 137.967C138.844 127.365 135.461 128.112 134.44 125.139Z" fill="#AAC6EA"/>
<path d="M59.5463 124.215C59.5463 124.215 58.8905 122.366 62.4476 121.272C66.0047 120.177 102.714 113.527 105.042 113.85C107.37 114.174 135.369 117.995 135.798 119.258C136.228 120.522 101.655 128.584 101.655 128.584L59.5463 124.215Z" fill="#A0CDBC"/>
<path d="M103.455 131.08C103.455 131.08 63.6115 129.568 60.6634 126.482C57.7144 123.396 57.7518 121.23 75.0498 124.383C92.3487 127.536 102.431 127.515 102.431 127.515C102.431 127.515 134.897 116.243 135.798 119.258C136.699 122.274 140.133 121.63 103.455 131.08Z" fill="#B8D6FF"/>
<path d="M135.798 119.258C134.897 116.243 102.431 127.514 102.431 127.514C102.431 127.514 102.318 127.515 102.109 127.512C102.725 128.654 103.278 129.817 103.783 130.995C140.108 121.635 136.697 122.265 135.798 119.258Z" fill="#AAC6EA"/>
<path d="M38.835 125.581L58.4206 121.225C58.4206 121.225 62.655 147.361 63.7134 148.813C64.7726 150.265 97.591 151.717 97.591 151.717L107.119 152.202C107.119 152.202 66.8894 167.689 55.2446 161.397C43.599 155.106 38.835 125.581 38.835 125.581Z" fill="#FFB4A0"/>
<path d="M40.755 128.693C46.7672 126.991 52.6904 124.979 58.8352 123.751C58.5763 122.19 58.4207 121.225 58.4207 121.225L38.8351 125.581C38.8351 125.581 39.0479 126.9 39.4925 129.035C39.9134 128.921 40.335 128.812 40.755 128.693Z" fill="#F69C8E"/>
<path d="M103.546 154.621C103.546 154.621 118.433 150.991 118.433 148.269C118.433 145.546 113.074 135.564 116.845 148.813C116.845 148.813 108.905 130.845 115.257 149.721C115.257 149.721 109.104 135.019 113.272 150.084C113.272 150.084 106.92 139.92 111.486 150.81L105.787 152.738L92.0329 152.625L84.6884 159.159L103.546 154.621Z" fill="#FFB4A0"/>
<path d="M138.482 141.372C138.482 141.372 130.542 123.403 136.894 142.279C136.894 142.279 130.74 127.578 134.909 142.642C134.909 142.642 128.557 132.478 132.637 143.418L128.247 145.284C129.867 145.393 131.867 145.334 133.542 144.84C138.619 143.901 140.07 142.295 140.07 140.827C140.07 138.105 134.71 128.122 138.482 141.372Z" fill="#FFB4A0"/>
<path d="M158.766 332.415C158.801 335.052 156.491 337.216 153.606 337.248C150.722 337.28 148.355 335.168 148.32 332.531L148.115 317.143C148.08 314.505 150.39 312.341 153.274 312.309C156.159 312.277 158.526 314.389 158.561 317.026L158.766 332.415Z" fill="#001817"/>
<path d="M85.6436 333.227C85.6786 335.865 83.3688 338.029 80.4842 338.061C77.5996 338.093 75.2327 335.981 75.1978 333.343L74.9929 317.955C74.958 315.318 77.2677 313.153 80.1523 313.121C83.0369 313.09 85.4038 315.201 85.4388 317.839L85.6436 333.227Z" fill="#001817"/>
<path d="M152.835 321.501C152.915 327.451 147.703 332.334 141.195 332.406L92.2928 332.95C85.7852 333.022 80.4447 328.257 80.3661 322.306L75.0956 220.531C75.0162 214.58 80.228 209.698 86.7356 209.626L143.472 208.995C149.98 208.923 155.321 213.688 155.399 219.639L152.835 321.501Z" fill="#00387A"/>
<path d="M155.145 229.762L155.399 219.639C155.32 213.688 149.98 208.923 143.473 208.995L86.7358 209.626C80.2282 209.698 75.0164 214.581 75.0958 220.531L75.6191 230.646L155.145 229.762Z" fill="#002E5C"/>
<path d="M164.834 217.117C164.856 218.765 163.412 220.118 161.61 220.137L68.9005 221.168C67.0981 221.188 65.6189 219.868 65.5966 218.219L65.4537 207.474C65.4323 205.826 66.8758 204.473 68.679 204.453L161.387 203.423C163.19 203.402 164.67 204.723 164.691 206.371L164.834 217.117Z" fill="#00387A"/>
<path d="M115.648 246.961L126.404 241.057L123.797 247.231L115.648 246.961Z" fill="#A0CDBC"/>
<path d="M111.57 237.606C111.57 237.606 112.439 237.597 113.809 239.461C115.178 241.326 118.171 246.426 118.171 246.426L123.678 244.196L124.916 242.23C124.916 242.23 122.565 237.846 120.664 237.577L111.57 237.606Z" fill="#A0CDBC"/>
<path d="M108.583 238.941C108.583 238.941 110.221 237.259 111.577 238.112C112.932 238.965 115.275 242.626 115.275 242.626L111.404 248.888L104.398 245.35L108.583 238.941Z" fill="#A0CDBC"/>
<path d="M120.539 254.753L121.12 266.211L116.412 261.183L120.539 254.753Z" fill="#A0CDBC"/>
<path d="M131.48 255.91C131.48 255.91 131.076 256.615 128.632 256.832C126.187 257.049 119.856 257.038 119.856 257.038L119.39 262.528L120.696 264.457C120.696 264.457 126.032 264.646 127.192 263.242L131.48 255.91Z" fill="#A0CDBC"/>
<path d="M131.612 252.872C131.612 252.872 132.453 254.988 130.989 255.675C129.525 256.361 124.889 256.509 124.889 256.509L120.698 250.422L127.428 246.462L131.612 252.872Z" fill="#A0CDBC"/>
<path d="M111.052 254.589L99.9409 249.265L107.064 248.086L111.052 254.589Z" fill="#A0CDBC"/>
<path d="M104.439 262.642C104.439 262.642 103.978 261.968 105.006 259.928C106.035 257.889 109.24 252.897 109.24 252.897L104.292 249.759L101.811 249.815C101.811 249.815 98.9402 253.933 99.6794 255.557L104.439 262.642Z" fill="#A0CDBC"/>
<path d="M107.241 264.28C107.241 264.28 104.818 263.876 104.909 262.373C104.999 260.871 107.199 257.137 107.199 257.137L115.061 256.9L115.405 264.211L107.241 264.28Z" fill="#A0CDBC"/>
</g>
</svg>
