<svg width="393" height="366" viewBox="0 0 393 366" fill="none" xmlns="http://www.w3.org/2000/svg">
<g clip-path="url(#clip0_1325_153)">
<path d="M-31 366H440V3.05176e-05H-31V366Z" fill="white"/>
<mask id="mask0_1325_153" style="mask-type:luminance" maskUnits="userSpaceOnUse" x="-31" y="0" width="471" height="366">
<path d="M-31 3.05176e-05H440V366H-31V3.05176e-05Z" fill="white"/>
</mask>
<g mask="url(#mask0_1325_153)">
<path fill-rule="evenodd" clip-rule="evenodd" d="M60.2038 24.8354C29.8318 24.8354 4.98185 53.8007 4.98185 89.2031C4.98185 124.604 29.8318 153.569 60.2038 153.569C66.2991 153.569 71.2861 159.383 71.2861 166.488C71.2861 173.592 66.2991 179.405 60.2038 179.405H31.3082C16.4912 179.405 4.36829 193.536 4.36829 210.806C4.36829 228.077 16.4912 242.208 31.3082 242.208C44.1226 242.208 54.6064 254.428 54.6064 269.364C54.6064 296.616 73.7353 318.914 97.1157 318.914H109.824H297.041H346.66C377.032 318.914 401.882 289.948 401.882 254.545C401.882 219.144 377.032 190.177 346.66 190.177H341.319C335.224 190.177 330.238 184.365 330.238 177.261C330.238 170.156 335.224 164.342 341.319 164.342H377.276C392.092 164.342 404.216 150.212 404.216 132.942C404.216 115.691 392.12 101.573 377.326 101.542C377.31 101.542 348.414 101.541 348.397 101.541C335.582 101.541 325.098 89.321 325.098 74.3845C325.098 47.1322 305.969 24.8354 282.589 24.8354H60.2038Z" fill="#A0CDBC"/>
<path fill-rule="evenodd" clip-rule="evenodd" d="M302.908 209.246C302.913 209.287 302.919 209.328 302.919 209.372C302.919 209.388 303.039 214.752 304.12 219.936C312.418 212.755 318.761 208.43 321.319 206.773C318.37 206.921 315.414 207.185 312.466 207.568C309.279 207.982 306.087 208.541 302.908 209.246ZM284.018 215.409C284.039 215.473 284.055 215.544 284.059 215.616C284.063 215.647 284.903 226.078 287.901 235.522C293.261 229.826 298.365 224.988 302.926 220.979C301.786 215.91 301.575 210.491 301.545 209.559C295.551 210.972 289.668 212.911 284.018 215.409ZM263.109 228.295C263.154 228.368 263.19 228.452 263.213 228.544C263.227 228.6 267.932 247.427 271.572 254.911C276.702 248.097 281.856 242.031 286.808 236.693C283.849 227.693 282.854 217.623 282.707 215.999C279.722 217.372 276.807 218.903 273.978 220.598C270.183 222.867 266.546 225.431 263.109 228.295ZM248.38 244.324C248.513 244.448 248.609 244.63 248.635 244.843C248.64 244.881 250.129 258.014 258.619 274.003C262.523 267.587 266.558 261.654 270.615 256.191C267.106 249.339 262.572 231.684 261.962 229.269C258.43 232.32 255.122 235.701 252.083 239.423C250.799 240.996 249.563 242.628 248.38 244.324ZM239.688 260.156C239.886 260.265 240.038 260.483 240.076 260.756C241.592 271.824 247.298 286.64 249.123 291.184C251.888 285.646 254.781 280.394 257.758 275.427C250.036 261.105 247.828 248.865 247.37 245.804C244.45 250.187 241.869 254.965 239.688 260.156ZM233.936 279.227C234.197 279.292 234.413 279.534 234.467 279.858C236.507 292.311 240.224 303.561 241.671 307.673C243.759 302.534 245.974 297.604 248.284 292.881C247.191 290.218 240.805 274.341 238.88 262.144C237.946 264.522 237.094 266.981 236.33 269.526C235.4 272.632 234.598 275.866 233.936 279.227ZM231.716 301.404C232.027 301.406 232.309 301.655 232.383 302.025C232.391 302.06 234.672 313.421 237.1 319.871C238.302 316.374 239.566 312.962 240.884 309.636C240.104 307.522 235.86 295.66 233.428 281.989C232.394 288.052 231.805 294.52 231.716 301.404ZM233.924 329.798C234.716 327.128 235.543 324.503 236.404 321.924C234.535 317.594 232.685 309.898 231.722 305.573C231.731 306.118 231.741 306.665 231.757 307.216C231.858 311.026 232.109 314.96 232.516 319.021C232.866 322.506 233.333 326.098 233.924 329.798ZM266.16 328.63C255.582 328.201 240.711 323.801 237.579 322.842C236.647 325.648 235.754 328.51 234.907 331.425C246.88 332.831 257.225 331.683 266.16 328.63ZM282.976 319.611C277.903 318.793 250.813 314.33 241.997 310.663C240.631 314.128 239.324 317.686 238.083 321.339C241.752 322.457 258.173 327.267 268.436 327.048C268.728 327.04 268.981 327.245 269.087 327.542C274.185 325.492 278.799 322.804 282.976 319.611ZM297.527 304.364C293.28 303.455 255.77 295.421 249.406 293.828C247.015 298.73 244.728 303.851 242.579 309.2C252.248 313.168 283.887 318.132 283.979 318.147C284.169 318.177 284.33 318.292 284.438 318.455C289.419 314.407 293.756 309.629 297.527 304.364ZM307.337 287.139L258.883 276.346C255.864 281.391 252.927 286.729 250.127 292.366C257.974 294.275 298.051 302.846 298.173 302.871C298.284 302.896 298.384 302.95 298.467 303.024C301.881 298.063 304.814 292.702 307.337 287.139ZM314.58 267.2C309.247 264.91 275.53 257.935 271.717 257.15C267.672 262.592 263.649 268.507 259.756 274.901L307.82 285.608C307.88 285.622 307.937 285.644 307.99 285.673C309.622 281.944 311.078 278.134 312.371 274.299C313.166 271.938 313.901 269.567 314.58 267.2ZM319.885 242.924L287.825 237.772C282.933 243.038 277.845 249.021 272.774 255.738C279.162 257.06 309.713 263.44 315.01 265.679C317.181 257.851 318.751 250.103 319.885 242.924ZM322.11 224.017L322.093 224.014C317.48 222.951 305.663 222.226 303.904 222.123C299.425 226.049 294.414 230.788 289.145 236.365L320.129 241.343C321.091 234.96 321.711 229.066 322.11 224.017ZM322.817 207.648C321.216 208.649 314.658 212.888 305.638 220.619C309.492 220.872 318.243 221.519 322.232 222.408C322.762 215.066 322.818 209.737 322.817 207.648ZM232.711 331.689C231.997 327.43 231.441 323.276 231.035 319.228C230.622 315.118 230.369 311.133 230.266 307.273C229.878 292.841 231.578 280.104 234.923 268.955C238.543 256.891 244.088 246.692 251.005 238.221C257.412 230.372 264.99 224.017 273.298 219.044C282.209 213.711 291.96 209.966 302.01 207.673C305.401 206.899 308.837 206.29 312.297 205.841C315.801 205.384 319.315 205.095 322.818 204.967V204.963C323.215 204.949 323.581 205.123 323.851 205.418C324.12 205.712 324.293 206.123 324.305 206.585L324.304 206.703C324.326 208.296 324.706 242.469 313.763 274.935C302.694 307.775 280.092 338.874 233.974 333.07C233.646 333.029 233.353 332.86 233.132 332.61C232.915 332.368 232.766 332.047 232.713 331.689H232.711Z" fill="#4B9A5C"/>
<path fill-rule="evenodd" clip-rule="evenodd" d="M363.746 242.45C368.6 242.118 373.519 242.279 378.415 242.876C378.245 243.599 377.287 247.821 377.116 252.033C372.785 253.832 367.867 256.116 362.574 258.987C362.223 250.894 363.731 242.646 363.735 242.621C363.745 242.563 363.75 242.506 363.746 242.45ZM345.026 246.48C345.045 246.55 345.056 246.624 345.055 246.701C345.053 246.748 344.779 262.527 346.029 269.296C351.377 265.503 356.587 262.29 361.492 259.579C361.08 251.837 362.394 243.825 362.617 242.536C360.042 242.753 357.485 243.111 354.962 243.618C351.581 244.297 348.258 245.244 345.026 246.48ZM330.403 254.658C330.482 254.79 330.516 254.956 330.492 255.127C330.488 255.158 328.92 265.662 332.137 280.322C336.462 276.492 340.785 273.067 345.03 270.009C343.75 263.762 343.915 248.932 343.944 246.906C340.602 248.259 337.362 249.927 334.261 251.932C332.949 252.779 331.663 253.688 330.403 254.658ZM320.458 264.378C323.206 261.002 326.175 258.057 329.323 255.511C329.042 257.99 328.21 268.009 331.183 281.175C327.871 284.156 324.564 287.376 321.297 290.854C320.835 286.854 319.511 273.874 320.633 264.947C320.661 264.728 320.589 264.518 320.458 264.378ZM312.103 277.41C313.306 275.014 314.588 272.755 315.946 270.632C317.058 268.891 318.22 267.242 319.428 265.678C318.387 275.585 320.013 289.571 320.303 291.922C317.552 294.902 314.833 298.067 312.169 301.426C311.907 297.863 311.375 288.179 312.379 278.043C312.406 277.78 312.289 277.533 312.103 277.41ZM305.817 293.82C306.056 293.908 306.221 294.179 306.202 294.483C306.2 294.512 305.606 303.877 306.139 309.512C307.785 307.163 309.46 304.898 311.158 302.713C310.998 300.872 310.187 290.571 311.142 279.388C309.095 283.755 307.308 288.556 305.817 293.82ZM301.65 316.245C302.809 314.416 303.988 312.633 305.18 310.893C304.64 307.043 304.807 300.615 304.962 297.022C304.856 297.444 304.751 297.866 304.648 298.293C303.941 301.247 303.32 304.341 302.795 307.573C302.342 310.347 301.959 313.237 301.65 316.245ZM326.647 324.392C319.155 324.231 310.974 322.209 302.067 317.77C303.322 315.769 304.598 313.821 305.893 311.928C308.1 313.545 318.612 321.095 326.647 324.392ZM341.425 322.183C337.558 323.466 333.459 324.234 329.12 324.379C329.1 324.121 328.948 323.894 328.723 323.817C320.796 321.106 309.177 312.804 306.591 310.915C308.298 308.458 310.037 306.092 311.801 303.814C317.815 309.105 337.696 320.133 341.425 322.183ZM355.749 314.558C352.675 312.669 325.527 295.973 320.969 292.965C318.121 296.057 315.305 299.349 312.55 302.855C319.157 308.615 342.43 321.305 342.499 321.342C342.639 321.417 342.737 321.552 342.786 321.707C347.447 319.996 351.765 317.543 355.749 314.558ZM366.841 304.081L331.857 282.198C328.496 285.224 325.138 288.5 321.824 292.043C327.456 295.712 356.465 313.539 356.553 313.593C356.633 313.643 356.698 313.712 356.747 313.794C360.394 310.94 363.753 307.647 366.841 304.081ZM376.521 290.801C375.511 292.428 374.457 294.043 373.359 295.633C371.573 298.217 369.668 300.735 367.644 303.139C367.609 303.101 367.572 303.069 367.528 303.042L332.826 281.334C337.137 277.514 341.448 274.101 345.679 271.056C348.444 272.728 372.898 287.546 376.521 290.801ZM385.608 273.645C383.255 278.842 380.449 284.351 377.164 289.753C373.56 286.548 351.415 273.076 346.78 270.268C352.063 266.533 357.208 263.366 362.051 260.694L385.608 273.645ZM391.221 259.751L391.209 259.742C387.886 257.632 378.961 253.759 377.63 253.186C373.381 254.945 368.552 257.179 363.356 259.983L386.122 272.5C388.179 267.868 389.874 263.516 391.221 259.751ZM395.145 247.376C394.716 248.981 393.572 253.057 391.648 258.549C388.768 256.746 382.181 253.794 379.272 252.519C387.798 249.113 393.71 247.696 395.145 247.376ZM379.526 243.018C379.522 243.052 379.515 243.085 379.508 243.118C379.505 243.131 378.489 247.283 378.249 251.568C386.105 248.382 391.869 246.84 394.177 246.284C391.881 245.57 389.556 244.944 387.212 244.411C384.678 243.836 382.112 243.368 379.526 243.018Z" fill="#4B9A5C"/>
<path fill-rule="evenodd" clip-rule="evenodd" d="M127.235 216.372C121.172 215.158 114.971 214.552 108.742 214.498C108.869 215.436 109.563 220.901 109.269 226.223C114.497 229.196 120.402 232.874 126.709 237.353C128.129 227.236 127.231 216.622 127.228 216.589C127.223 216.515 127.224 216.443 127.235 216.372ZM150.281 224.514C150.248 224.598 150.225 224.689 150.217 224.787C150.213 224.847 148.652 244.726 146.261 253.031C139.997 247.383 133.836 242.49 127.996 238.275C129.452 228.612 128.768 218.323 128.643 216.666C131.855 217.362 135.025 218.231 138.135 219.284C142.305 220.693 146.367 222.43 150.281 224.514ZM167.674 237.196C166.207 235.77 164.7 234.416 163.155 233.135C159.498 230.105 155.626 227.477 151.59 225.227C151.381 227.779 149.795 246.45 147.431 254.092C152.397 258.633 157.419 263.649 162.39 269.175C168.208 251.273 167.507 237.812 167.505 237.772C167.495 237.554 167.56 237.35 167.674 237.196ZM179 251.049C175.955 246.355 172.579 242.164 168.929 238.446C168.982 241.609 168.817 254.341 163.488 270.404C167.291 274.694 171.059 279.286 174.745 284.194C175.81 279.24 179.043 263.141 178.712 251.736C178.705 251.455 178.819 251.202 179 251.049ZM187.929 268.803C187.679 268.928 187.502 269.218 187.503 269.555C187.541 282.462 185.702 294.549 184.942 298.985C181.998 294.322 178.963 289.897 175.866 285.699C176.514 282.792 180.249 265.478 180.139 252.852C181.468 255.016 182.73 257.281 183.917 259.652C185.366 262.544 186.707 265.594 187.929 268.803ZM193.846 290.465C193.536 290.537 193.295 290.85 193.282 291.235C193.281 291.272 192.895 303.144 191.545 310.139C189.76 306.915 187.928 303.794 186.057 300.768C186.482 298.479 188.745 285.663 188.897 271.448C190.941 277.273 192.609 283.604 193.846 290.465ZM196.373 319.341C196.346 315.508 196.216 311.812 195.983 308.251C195.713 304.1 195.307 300.111 194.774 296.281C194.697 295.727 194.617 295.178 194.535 294.631C194.294 299.172 193.727 307.282 192.582 312.033C193.872 314.414 195.138 316.851 196.373 319.341ZM163.964 325.476C174.464 322.652 188.591 314.885 191.561 313.216C192.96 315.81 194.329 318.467 195.663 321.189C183.932 325.306 173.402 326.504 163.964 325.476ZM145.656 320.272C150.361 322.518 155.421 324.159 160.856 325.053C160.913 324.733 161.132 324.471 161.425 324.412C171.718 322.306 187.327 313.777 190.806 311.827C188.957 308.46 187.058 305.199 185.115 302.046C176.916 307.708 150.589 318.307 145.656 320.272ZM128.57 308.332C133.217 312.74 138.348 316.531 144.001 319.451C144.081 319.262 144.222 319.11 144.406 319.038C144.497 319.003 175.288 306.873 184.29 300.716C181.249 295.857 178.11 291.257 174.902 286.901C168.808 289.935 132.662 306.463 128.57 308.332ZM115.893 293.341L162.516 271.578C166.376 275.934 170.201 280.603 173.939 285.601C166.416 289.289 127.793 306.936 127.676 306.988C127.569 307.037 127.477 307.113 127.406 307.208C123.168 303.023 119.343 298.33 115.893 293.341ZM105.33 275.056C110.277 271.559 142.811 256.949 146.49 255.301C151.439 259.823 156.446 264.822 161.404 270.332L115.155 291.921C115.096 291.949 115.044 291.983 114.996 292.025C112.743 288.668 110.653 285.191 108.722 281.651C107.532 279.47 106.403 277.267 105.33 275.056ZM95.9795 251.997C98.3088 258.916 101.171 266.303 104.647 273.633C109.566 270.195 139.034 256.897 145.198 254.13C139.009 248.565 132.926 243.739 127.16 239.585L95.9795 251.997ZM90.6032 233.607L90.6189 233.599C95.052 231.491 106.741 228.091 108.482 227.587C113.613 230.497 119.411 234.098 125.605 238.475L95.4721 250.472C93.4462 244.311 91.8429 238.562 90.6032 233.607ZM87.1674 217.408C87.5128 219.495 88.4573 224.807 90.2126 232.027C94.0516 230.234 102.688 227.605 106.499 226.478C96.1943 220.797 88.9334 218.044 87.1674 217.408ZM107.329 214.495C107.331 214.537 107.334 214.58 107.339 214.622C107.342 214.64 108.118 220.025 107.901 225.451C98.4105 220.155 91.3499 217.271 88.517 216.194C91.4887 215.673 94.4874 215.267 97.498 214.983C100.753 214.676 104.035 214.51 107.329 214.495Z" fill="#4B9A5C"/>
<path fill-rule="evenodd" clip-rule="evenodd" d="M154.772 71.8715C154.766 71.9125 154.762 71.9535 154.76 71.9967C154.76 72.0135 154.641 77.3769 153.56 82.5602C145.262 75.38 138.919 71.0553 136.36 69.3974C139.309 69.5445 142.265 69.8087 145.214 70.193C148.402 70.6074 151.593 71.1659 154.772 71.8715ZM173.661 78.0328C173.64 78.0979 173.626 78.1674 173.62 78.2407C173.617 78.2721 172.777 88.7024 169.778 98.1474C164.419 92.4502 159.316 87.6117 154.755 83.6033C155.894 78.5342 156.104 73.1159 156.133 72.1826C162.129 73.5961 168.012 75.5366 173.661 78.0328ZM194.571 90.9204C194.525 90.9936 194.49 91.077 194.466 91.1692C194.453 91.2256 189.748 110.052 186.108 117.537C180.976 110.722 175.824 104.657 170.872 99.3179C173.83 90.3179 174.826 80.2485 174.972 78.6242C177.957 79.9975 180.873 81.5288 183.702 83.2219C187.496 85.4926 191.134 88.0553 194.571 90.9204ZM209.301 106.949C209.167 107.073 209.071 107.254 209.045 107.467C209.04 107.506 207.551 120.639 199.061 136.626C195.157 130.212 191.122 124.278 187.065 118.815C190.574 111.964 195.107 94.3088 195.719 91.8939C199.249 94.9456 202.558 98.326 205.597 102.047C206.88 103.621 208.116 105.254 209.301 106.949ZM217.992 122.78C217.793 122.89 217.643 123.109 217.604 123.381C216.087 134.449 210.38 149.265 208.557 153.809C205.792 148.27 202.897 143.019 199.922 138.052C207.644 123.73 209.852 111.49 210.31 108.429C213.23 112.811 215.811 117.591 217.992 122.78ZM223.744 141.852C223.484 141.917 223.268 142.158 223.213 142.483C221.173 154.935 217.455 166.186 216.008 170.298C213.919 165.16 211.706 160.229 209.396 155.505C210.488 152.844 216.875 136.966 218.8 124.769C219.733 127.146 220.585 129.606 221.349 132.151C222.281 135.256 223.082 138.49 223.744 141.852ZM225.966 164.03C225.653 164.03 225.372 164.28 225.296 164.65C225.29 164.685 223.008 176.046 220.581 182.495C219.377 178.997 218.114 175.586 216.797 172.262C217.574 170.145 221.818 158.285 224.252 144.613C225.287 150.676 225.875 157.144 225.966 164.03ZM223.754 192.425C222.964 189.753 222.136 187.128 221.276 184.549C223.144 180.218 224.995 172.523 225.958 168.198C225.949 168.742 225.939 169.29 225.923 169.839C225.82 173.65 225.571 177.585 225.163 181.645C224.815 185.129 224.347 188.721 223.754 192.425ZM191.521 191.253C202.098 190.825 216.969 186.426 220.102 185.466C221.033 188.273 221.926 191.134 222.773 194.05C210.799 195.455 200.454 194.307 191.521 191.253ZM174.705 182.234C179.779 181.417 206.868 176.955 215.683 173.287C217.049 176.752 218.356 180.311 219.597 183.963C215.928 185.082 199.506 189.893 189.244 189.672C188.952 189.665 188.698 189.871 188.592 190.166C183.495 188.116 178.881 185.428 174.705 182.234ZM160.154 166.989C164.4 166.081 201.909 158.045 208.274 156.453C210.664 161.354 212.952 166.477 215.101 171.825C205.431 175.794 173.793 180.756 173.7 180.77C173.51 180.8 173.35 180.917 173.243 181.08C168.262 177.031 163.925 172.254 160.154 166.989ZM150.343 149.764L198.796 138.972C201.817 144.015 204.753 149.354 207.553 154.99C199.706 156.9 159.629 165.471 159.508 165.496C159.396 165.521 159.297 165.575 159.212 165.649C155.799 160.689 152.866 155.327 150.343 149.764ZM143.1 129.825C148.433 127.535 182.149 120.559 185.963 119.774C190.007 125.217 194.031 131.131 197.924 137.528L149.859 148.232C149.799 148.247 149.743 148.268 149.69 148.297C148.057 144.569 146.602 140.759 145.309 136.924C144.513 134.563 143.779 132.191 143.1 129.825ZM137.794 105.548L169.855 100.397C174.745 105.663 179.835 111.645 184.906 118.363C178.518 119.684 147.966 126.065 142.67 128.304C140.499 120.476 138.928 112.727 137.794 105.548ZM135.569 86.6418L135.586 86.6374C140.2 85.5753 152.016 84.8506 153.777 84.7474C158.255 88.6739 163.267 93.4128 168.534 98.9877L137.551 103.968C136.589 97.5852 135.968 91.6904 135.569 86.6418ZM134.863 70.2721C136.463 71.2727 143.022 75.5132 152.042 83.2439C148.187 83.4964 139.438 84.1428 135.448 85.0329C134.917 77.6895 134.86 72.3605 134.863 70.2721ZM224.968 194.312C225.684 190.054 226.238 185.902 226.644 181.853C227.058 177.742 227.31 173.758 227.414 169.898C227.801 155.466 226.102 142.728 222.757 131.579C219.137 119.515 213.591 109.317 206.676 100.846C200.268 92.997 192.689 86.6418 184.382 81.6693C175.471 76.3353 165.718 72.5896 155.67 70.2984C152.28 69.524 148.843 68.9142 145.381 68.4641C141.878 68.0088 138.364 67.7204 134.861 67.5923V67.5886C134.465 67.5732 134.099 67.7482 133.83 68.0432C133.56 68.336 133.387 68.7481 133.374 69.2092L133.376 69.3278C133.354 70.9214 132.975 105.094 143.917 137.56C154.987 170.399 177.589 201.498 223.705 195.694C224.035 195.653 224.325 195.485 224.548 195.235C224.764 194.993 224.914 194.67 224.968 194.312Z" fill="#4B9A5C"/>
<path fill-rule="evenodd" clip-rule="evenodd" d="M229.188 273.849L232.462 284.955L217.018 317.645H177.63C179.194 308.281 186.837 264.637 195.083 254.366C204.335 242.843 229.188 273.849 229.188 273.849Z" fill="#262934"/>
<path fill-rule="evenodd" clip-rule="evenodd" d="M230.501 273.849L241.354 284.955L248.22 317.645H208.545C203.686 310.432 185.864 283.18 187.064 273.221C188.451 261.698 230.501 273.849 230.501 273.849Z" fill="#413B73"/>
<path fill-rule="evenodd" clip-rule="evenodd" d="M215.639 102.849C215.639 102.849 244.847 125.056 246.014 127.256C246.014 127.256 246.643 129.142 245.655 130.085C244.666 131.028 234.78 136.264 234.78 136.264C234.78 136.264 235.14 138.149 233.882 139.302C233.882 139.302 234.974 145.347 235.994 155.938L216.751 164.009C216.751 164.009 206.865 135.928 206.865 134.051C206.865 132.172 209.504 119.089 211.458 109.291L212.76 104.522C212.76 104.522 213.838 101.536 215.639 102.849Z" fill="#566A92"/>
<path fill-rule="evenodd" clip-rule="evenodd" d="M234.81 110.998L233.544 114.867C233.544 114.867 232.608 114.298 231.845 114.874C231.081 115.45 229.958 118.069 229.958 118.069C229.958 118.069 208.164 112.674 208.883 111.209C209.602 109.74 217.691 94.7619 217.691 94.7619L224.043 92.7775L234.766 110.475L234.81 110.998Z" fill="#D58881"/>
<path fill-rule="evenodd" clip-rule="evenodd" d="M209.393 99.8119C209.393 99.8119 238.6 122.019 239.768 124.219C239.768 124.219 240.398 126.105 239.409 127.047C238.42 127.99 228.535 133.228 228.535 133.228C228.535 133.228 228.895 135.113 227.636 136.264C227.636 136.264 244.26 187.066 244.98 191.048C245.699 195.028 247.855 275.896 246.597 278.619C245.339 281.343 244.441 284.486 241.564 285.323C238.689 286.161 219.097 285.113 212.806 283.856C206.516 282.599 186.025 273.173 184.406 268.982C182.789 264.792 181.889 166.955 183.328 151.87C184.766 136.786 194.112 117.302 201.841 115.207C201.841 115.207 202.02 113.008 203.369 113.008L206.514 101.484C206.514 101.484 207.593 98.4987 209.393 99.8119Z" fill="#6181A4"/>
<path fill-rule="evenodd" clip-rule="evenodd" d="M244.532 189.29C244.769 190.132 244.923 190.736 244.98 191.047C245.205 192.296 245.572 201.109 245.931 212.699C241.308 214.742 235.974 215.329 232.89 214.054C228.773 212.351 195.956 187.035 182.656 176.713C182.684 173.064 182.724 169.657 182.777 166.574L206.491 142.387C206.491 142.387 230.825 170.097 244.532 189.29Z" fill="#566A92"/>
<path fill-rule="evenodd" clip-rule="evenodd" d="M256.385 147.045L257.374 146.417C257.374 146.417 259.126 138.14 259.352 136.989C259.577 135.837 259.577 134.369 257.331 131.541C255.084 128.713 254.678 127.873 253.78 126.669C252.881 125.464 251.084 125.778 251.084 125.778C251.084 125.778 248.748 123.107 247.579 122.008C247.579 122.008 246.543 121.143 245.061 121.378C243.578 121.613 241.288 121.876 240.816 121.954C240.344 122.033 241.016 124.546 244.612 124.651C244.612 124.651 247.129 127.583 247.577 128.211C248.027 128.841 248.296 132.455 248.296 132.455C248.296 132.455 246.364 129.155 245.197 128.788C244.028 128.422 243.444 128.578 242.995 128.892C242.546 129.207 243.646 131.066 244.454 132.402C245.263 133.738 247.082 137.769 247.262 138.293C247.442 138.817 247.442 142.326 247.487 143.059C247.531 143.793 256.385 147.045 256.385 147.045Z" fill="#E9BAA8"/>
<path fill-rule="evenodd" clip-rule="evenodd" d="M211.715 214.074C211.715 214.074 217.108 183.696 220.703 164.213C224.297 144.73 224.167 134.512 224.167 134.512C224.167 134.512 210.996 125.874 198.954 135.72C186.912 145.567 185.294 161.069 176.487 193.333L180.441 194.799C180.441 194.799 188.978 157.193 192.573 150.279C196.168 143.367 203.004 133.465 210.729 132.288C218.454 131.111 220.971 144.203 216.478 168.507C211.984 192.809 207.671 209.882 207.671 209.882L211.715 214.074Z" fill="#D58881"/>
<path fill-rule="evenodd" clip-rule="evenodd" d="M255.808 69.5347C255.808 69.5347 260.738 74.0738 257.927 84.4631C255.114 94.8516 252.931 99.0877 256.267 103.565C256.267 103.565 256.704 104.376 256.166 104.955C255.63 105.531 253.634 106.58 252.501 107.373C251.366 108.165 247.501 115.74 245.044 118.172C242.586 120.603 236.882 119.136 231.889 113.034C226.896 106.931 222.492 91.4603 223.854 85.1189C225.213 78.7769 246.301 67.649 255.808 69.5347Z" fill="#E9BAA8"/>
<path fill-rule="evenodd" clip-rule="evenodd" d="M244.239 96.0389C246.202 96.6692 247.357 99.0379 246.817 101.328C246.274 103.618 244.242 104.963 242.279 104.333C240.315 103.702 239.159 101.333 239.701 99.0438C240.243 96.7548 242.274 95.4102 244.239 96.0389Z" fill="#D58881"/>
<path fill-rule="evenodd" clip-rule="evenodd" d="M249.175 87.9729C250.483 87.7314 251.942 88.041 252.87 89.2203C253.086 89.494 253.455 89.5123 253.688 89.2605C253.922 89.0109 253.937 88.5805 253.722 88.3082C252.567 86.8405 250.626 86.2791 248.976 86.6451C248.661 86.7095 248.451 87.0616 248.508 87.4276C248.563 87.7936 248.864 88.0374 249.175 87.9729Z" fill="#262934"/>
<path fill-rule="evenodd" clip-rule="evenodd" d="M250.332 91.6008C250.017 91.4925 249.692 91.5239 249.41 91.6645C249.321 91.603 249.176 91.469 249.137 91.2304C249.115 91.0921 249 91.002 248.882 91.0284C248.765 91.0547 248.688 91.1879 248.71 91.3248C248.755 91.6059 248.884 91.8058 249.015 91.9419L249.001 91.9529C248.837 91.8446 248.659 91.6659 248.555 91.3768C248.509 91.248 248.382 91.1865 248.271 91.2399C248.16 91.2934 248.108 91.4427 248.153 91.5708C248.27 91.8965 248.455 92.1234 248.642 92.2801L248.639 92.2838C248.446 92.2025 248.244 92.0634 248.072 91.8328C247.993 91.7282 247.855 91.7172 247.766 91.8087C247.675 91.9002 247.666 92.0612 247.745 92.1666C247.92 92.4038 248.12 92.5663 248.318 92.6754L248.597 92.8232L248.129 94.6679C247.915 95.5075 248.331 96.3983 249.051 96.6465C249.772 96.8954 250.536 96.4115 250.748 95.5719L251.255 93.5801C251.469 92.7413 251.053 91.8504 250.332 91.6008Z" fill="#262934"/>
<path fill-rule="evenodd" clip-rule="evenodd" d="M260.664 70.7202C260.68 70.5226 260.557 70.3447 260.389 70.3242C260.218 70.303 260.066 70.4457 260.048 70.6441C260.042 70.7071 258.213 92.8405 237.279 85.6142C237.116 85.5571 236.943 85.6662 236.895 85.858C236.845 86.049 236.94 86.2496 237.104 86.3074C258.756 93.7812 260.656 70.7861 260.664 70.7202Z" fill="#262934"/>
<path fill-rule="evenodd" clip-rule="evenodd" d="M258.528 163.398L258.547 164.698C258.547 164.698 261.691 173.288 260.794 179.782C259.894 186.277 244.347 206.179 242.37 208.274C240.393 210.369 233.203 213.721 224.216 205.131C215.23 196.542 206.513 174.545 202.558 167.002C198.605 159.461 202.109 138.823 206.243 134.423C210.376 130.025 220.276 131.384 226.382 135.095C232.489 138.807 237.516 163.649 237.516 163.649C237.516 163.649 238.953 162.811 239.538 165.273C239.538 165.273 240.255 159.982 241.649 159.196C243.042 158.412 244.973 158.201 244.973 158.201C244.973 158.201 244.962 158.01 244.939 157.683C247.125 157.109 253.801 156.101 258.528 163.398Z" fill="#413B73"/>
<path fill-rule="evenodd" clip-rule="evenodd" d="M209.263 181.126C206.463 175.299 204.133 170.005 202.558 167.003C199.202 160.598 201.222 144.756 204.438 137.425L218.412 132.091C220.918 132.574 223.4 133.451 225.52 134.6C225.563 145.999 224.045 172.951 209.263 181.126Z" fill="#383169"/>
<path fill-rule="evenodd" clip-rule="evenodd" d="M258.277 146.367L258.547 164.698C252.422 155.689 244.973 158.201 244.973 158.201C244.973 158.201 244.615 152.389 243.94 150.241C243.94 150.241 243.221 147.987 243.895 146.575C244.569 145.159 247.445 142.595 248.839 142.123C250.231 141.651 258.14 143.641 258.277 146.367Z" fill="white"/>
<path fill-rule="evenodd" clip-rule="evenodd" d="M236.712 85.4056C236.712 85.4056 245.899 88.775 253.616 82.2975C261.335 75.8208 263.934 66.8011 256.647 59.361C249.359 51.921 232.502 42.7 219.017 55.1308C205.532 67.5609 213.026 84.7043 192.695 96.2502C181.963 102.346 173.553 106.57 168.296 113.854C139.986 153.074 200.503 204.519 218.631 153.345C230.552 119.69 214.1 93.6296 236.712 85.4056Z" fill="#262934"/>
<path fill-rule="evenodd" clip-rule="evenodd" d="M237.593 87.3525C236.563 75.5095 223.449 86.1015 231.534 95.1036C231.534 95.1036 236.992 94.2955 237.593 87.3525Z" fill="#E9BAA8"/>
<path fill-rule="evenodd" clip-rule="evenodd" d="M237.292 87.3871C237.308 87.5811 237.457 87.7216 237.623 87.7026C237.789 87.6836 237.909 87.5115 237.894 87.3176C237.629 84.2651 236.575 82.6159 235.264 82.0076C234.122 81.4791 232.802 81.747 231.64 82.5698C230.501 83.3772 229.507 84.7226 228.991 86.3667C228.182 88.9448 228.536 92.2512 231.325 95.3579C231.445 95.4925 231.636 95.4874 231.752 95.3476C231.867 95.2078 231.863 94.9838 231.742 94.8491C229.162 91.9753 228.824 88.9514 229.558 86.609C230.026 85.1201 230.923 83.9028 231.953 83.1737C232.961 82.4607 234.087 82.2192 235.041 82.662C236.154 83.1788 237.054 84.6406 237.292 87.3871Z" fill="#D58881"/>
<path fill-rule="evenodd" clip-rule="evenodd" d="M217.116 208.647C217.116 208.647 180.446 192.547 177.157 191.588C177.157 191.588 176.047 191.276 175.266 191.443C174.485 191.612 171.607 192.451 171.607 192.451C171.607 192.451 170.168 192.736 169.263 194.94C168.359 197.144 145.83 261.163 145.83 261.163C145.83 261.163 144.844 263.847 146.735 266.051C148.625 268.255 209.057 289.148 209.057 289.148C209.057 289.148 212.509 290.202 213.497 286.751C214.484 283.301 219.211 212.287 219.211 212.287C219.211 212.287 219.169 209.507 217.116 208.647Z" fill="#E9BAA8"/>
<path fill-rule="evenodd" clip-rule="evenodd" d="M180.913 233.983L187.215 227.634C187.36 227.4 187.602 226.873 187.447 226.15L185.279 216.052L185.279 216.049C185.269 216.008 185.114 215.369 184.657 215.829L174.809 225.753C174.503 226.061 174.468 226.606 174.734 226.964L179.874 233.896C180.139 234.252 180.606 234.292 180.913 233.983Z" fill="white"/>
<path fill-rule="evenodd" clip-rule="evenodd" d="M189.693 231.468L186.15 214.965C186.098 214.72 186.227 214.47 186.437 214.408L194.848 215.641C195.324 215.713 195.978 215.925 196.057 216.291L198.748 228.828C198.857 229.2 199.12 229.396 199.457 229.297L201.455 228.714C201.619 228.666 201.784 228.74 201.878 228.904C201.972 229.07 201.968 229.276 201.867 229.435L196.873 237.285C195.824 238.936 196.283 238.74 194.69 237.859L187.187 233.715C187.034 233.631 186.947 233.452 186.963 233.255C186.98 233.058 187.096 232.902 187.26 232.855C187.925 232.661 188.592 232.466 189.257 232.272C189.595 232.174 189.747 231.857 189.693 231.468Z" fill="white"/>
<path fill-rule="evenodd" clip-rule="evenodd" d="M192.158 241.205L193.359 250.812C193.451 251.08 193.702 251.602 194.308 251.838L202.778 255.142L202.779 255.143C202.812 255.155 203.359 255.345 203.272 254.65L201.395 239.636C201.336 239.169 200.961 238.842 200.558 238.908L192.782 240.23C192.38 240.298 192.1 240.736 192.158 241.205Z" fill="white"/>
<path fill-rule="evenodd" clip-rule="evenodd" d="M189.127 250.907L202.967 256.306C203.174 256.386 203.285 256.647 203.216 256.887L197.799 264.487C197.491 264.918 196.987 265.446 196.679 265.326L186.165 261.226C185.837 261.132 185.554 261.284 185.444 261.669C185.227 262.427 185.008 263.187 184.79 263.946C184.737 264.132 184.594 264.255 184.425 264.259C184.256 264.263 184.109 264.148 184.048 263.962L181.057 254.832C180.428 252.912 180.323 253.471 181.817 252.378L188.85 247.235C188.994 247.131 189.17 247.142 189.304 247.263C189.437 247.385 189.488 247.583 189.434 247.771C189.216 248.529 188.998 249.287 188.78 250.046C188.669 250.432 188.816 250.752 189.127 250.907Z" fill="white"/>
<path fill-rule="evenodd" clip-rule="evenodd" d="M180.537 247.58L172.67 244.394C172.423 244.365 171.91 244.384 171.451 244.901L165.032 252.14H165.03C165.005 252.171 164.608 252.648 165.178 252.878L177.474 257.858C177.857 258.014 178.28 257.776 178.413 257.328L180.992 248.675C181.125 248.229 180.92 247.736 180.537 247.58Z" fill="white"/>
<path fill-rule="evenodd" clip-rule="evenodd" d="M174.403 240.04L163.913 251.868C163.757 252.043 163.506 252.038 163.356 251.858L160.066 242.749C159.88 242.234 159.712 241.467 159.944 241.204L167.914 232.22C168.135 231.923 168.15 231.561 167.907 231.269C167.43 230.694 166.954 230.119 166.476 229.543C166.358 229.402 166.331 229.199 166.406 229.021C166.481 228.844 166.636 228.745 166.805 228.768L175.135 229.884C176.886 230.118 176.51 229.752 176.653 231.801L177.326 241.446C177.339 241.643 177.25 241.821 177.096 241.902C176.941 241.984 176.767 241.945 176.65 241.803C176.173 241.228 175.695 240.652 175.218 240.079C174.976 239.786 174.665 239.79 174.403 240.04Z" fill="white"/>
<path d="M207.205 288.771C206.895 288.771 206.679 288.706 206.661 288.699C206.491 288.646 206.393 288.444 206.438 288.249C206.485 288.053 206.659 287.933 206.825 287.99C206.845 287.994 207.521 288.187 208.109 287.736C208.585 287.369 208.891 286.673 209.018 285.669C209.43 282.405 212.909 241.984 212.943 241.575C212.96 241.374 213.115 241.224 213.289 241.246C213.463 241.267 213.589 241.447 213.571 241.649C213.537 242.058 210.057 282.495 209.642 285.777C209.487 287.001 209.087 287.87 208.448 288.358C208.01 288.691 207.55 288.771 207.205 288.771Z" fill="#D08174"/>
<path d="M212.82 235.906L212.192 235.829C212.192 235.829 213.779 218.204 214.281 212.557C214.74 207.383 212.552 207.003 212.459 206.989C212.287 206.964 212.162 206.781 212.182 206.58C212.204 206.382 212.344 206.238 212.528 206.257C212.648 206.273 215.436 206.687 214.909 212.632C214.408 218.28 212.82 235.906 212.82 235.906Z" fill="#D08174"/>
<path d="M235.312 176.64C235.245 176.64 235.177 176.615 235.119 176.563C234.981 176.439 234.956 176.207 235.064 176.047C238.152 171.404 239.217 165.263 239.227 165.202C239.261 165.003 239.424 164.873 239.599 164.912C239.77 164.951 239.881 165.145 239.847 165.344C239.803 165.601 238.746 171.714 235.562 176.497C235.5 176.592 235.407 176.64 235.312 176.64Z" fill="#262934"/>
<path d="M234.059 168.753C234.008 168.753 233.957 168.739 233.908 168.708C233.756 168.61 233.698 168.386 233.783 168.208C235.221 165.152 237.245 163.423 237.331 163.352C237.473 163.233 237.669 163.267 237.772 163.433C237.873 163.598 237.843 163.828 237.701 163.947C237.682 163.964 235.702 165.658 234.336 168.562C234.279 168.684 234.171 168.753 234.059 168.753Z" fill="#262934"/>
<path d="M242.582 192.318C242.418 192.318 242.281 192.172 242.268 191.978C242.253 191.776 242.383 191.598 242.557 191.582C256.708 190.255 260.465 179.752 260.5 179.647C260.565 179.457 260.75 179.369 260.91 179.441C261.072 179.515 261.151 179.73 261.087 179.919C261.05 180.028 257.17 190.951 242.607 192.317C242.599 192.317 242.59 192.318 242.582 192.318Z" fill="#262934"/>
<path d="M224.216 205.5C224.099 205.5 223.985 205.421 223.931 205.288C223.88 205.162 218.906 192.566 225.099 180.079C225.185 179.902 225.379 179.844 225.531 179.945C225.681 180.046 225.732 180.271 225.645 180.448C219.616 192.604 224.452 204.851 224.502 204.974C224.576 205.158 224.51 205.378 224.352 205.465C224.308 205.489 224.262 205.5 224.216 205.5Z" fill="#262934"/>
<path d="M228.536 133.596C228.47 133.596 228.404 133.572 228.347 133.523L224.35 130.071C224.209 129.95 224.18 129.719 224.283 129.556C224.388 129.393 224.585 129.357 224.726 129.479L228.724 132.933C228.863 133.053 228.893 133.283 228.789 133.446C228.727 133.544 228.632 133.596 228.536 133.596Z" fill="#566A92"/>
<path d="M237.815 278.373C232.645 278.373 225.8 278.008 218.803 276.586C218.63 276.551 218.517 276.361 218.546 276.162C218.576 275.96 218.733 275.822 218.911 275.861C233.071 278.74 246.598 277.257 246.734 277.242C246.913 277.222 247.063 277.371 247.078 277.573C247.096 277.775 246.969 277.956 246.795 277.974C246.726 277.983 243.168 278.373 237.815 278.373Z" fill="#566A92"/>
<path d="M242.75 261.011C242.663 261.011 242.578 260.969 242.514 260.889C232.074 247.367 221.678 219.201 221.574 218.917C221.506 218.728 221.58 218.513 221.74 218.433C221.899 218.353 222.087 218.441 222.155 218.627C222.257 218.908 232.614 246.966 242.985 260.396C243.101 260.547 243.091 260.781 242.961 260.916C242.9 260.979 242.825 261.011 242.75 261.011Z" fill="#566A92"/>
<path d="M240.41 311.549C240.273 311.549 240.146 311.444 240.107 311.282L233.837 285.695C233.79 285.499 233.887 285.295 234.054 285.239C234.224 285.184 234.396 285.297 234.445 285.491L240.713 311.079C240.762 311.275 240.664 311.479 240.497 311.534C240.468 311.545 240.439 311.549 240.41 311.549Z" fill="#262934"/>
<path fill-rule="evenodd" clip-rule="evenodd" d="M213.483 62.2593C216.312 65.4201 220.54 67.6285 226.834 66.6828C238.638 64.9099 248.727 58.5759 257.232 59.9865C258.061 60.9124 258.741 61.8604 259.285 62.8237C255.681 62.2015 251.036 62.9035 245.599 67.0268C234.869 75.1637 219.666 84.7346 208.844 74.6945C210.158 70.4767 211.312 66.2494 213.483 62.2593Z" fill="#413B73"/>
<path fill-rule="evenodd" clip-rule="evenodd" d="M109.725 93.532C109.725 93.532 107.052 100.154 110.56 113.981C114.069 127.807 108.055 128.587 106.383 127.613C106.383 127.613 102.207 150.885 73.3016 150.69C44.3973 150.495 48.5741 123.425 55.9261 113.688C63.2775 103.951 64.742 90.2717 60.9338 82.7277L74.8057 73.1802L109.725 93.532Z" fill="#262934"/>
<path fill-rule="evenodd" clip-rule="evenodd" d="M75.6475 132.803H96.58V115.319H75.6475V132.803Z" fill="#D58881"/>
<path fill-rule="evenodd" clip-rule="evenodd" d="M107.908 86.6702C108.057 86.6943 108.205 86.7221 108.35 86.758L108.355 86.7602L108.354 86.7595C111.048 87.4168 113.094 90.1713 113.149 93.5158C113.212 97.402 110.56 100.613 107.225 100.687C103.891 100.761 101.136 97.6692 101.072 93.783C101.035 91.5233 101.915 89.4935 103.314 88.1752C103.16 90.2526 103.443 92.8248 105.719 93.0832L105.653 89.0243C105.626 87.3809 106.941 86.6248 107.908 86.6702Z" fill="#D58881"/>
<path fill-rule="evenodd" clip-rule="evenodd" d="M64.3207 86.6702C64.1713 86.6943 64.0243 86.7221 63.8774 86.758L63.8736 86.7602L63.8742 86.7595C61.1801 87.4168 59.1341 90.1713 59.0795 93.5158C59.0167 97.402 61.6693 100.613 65.0028 100.687C68.3381 100.761 71.0931 97.6692 71.1559 93.783C71.193 91.5233 70.3131 89.4935 68.9146 88.1752C69.0684 90.2526 68.7846 92.8248 66.5093 93.0832L66.5753 89.0243C66.6016 87.3809 65.2872 86.6248 64.3207 86.6702Z" fill="#D58881"/>
<path fill-rule="evenodd" clip-rule="evenodd" d="M86.1128 51.5081C97.4852 51.5081 106.79 62.3526 106.79 75.6084V97.5289C106.79 110.785 97.4852 121.629 86.1128 121.629C74.7434 121.629 65.4377 110.785 65.4377 97.5289V75.6084C65.4377 62.3526 74.7434 51.5081 86.1128 51.5081Z" fill="#E9BAA8"/>
<path fill-rule="evenodd" clip-rule="evenodd" d="M65.4379 86.7892V75.6087C65.4379 68.304 68.2639 61.7336 72.7032 57.3035C80.6286 56.4625 98.9191 55.6902 99.1816 66.4411C99.1816 66.4411 95.5888 64.6887 91.3284 71.1149C87.0674 77.5419 81.6396 75.9739 81.6396 75.9739C81.6396 75.9739 74.3002 91.1681 65.4379 86.7892Z" fill="#D58881"/>
<path fill-rule="evenodd" clip-rule="evenodd" d="M91.5078 102.637C91.5342 106.081 89.1604 108.897 86.2063 108.929C83.2503 108.96 80.8331 106.193 80.8061 102.749H80.8155C80.8105 102.156 81.2231 101.668 81.7318 101.662L90.5658 101.569C91.0745 101.564 91.4947 102.044 91.499 102.637H91.5078Z" fill="#262934"/>
<path fill-rule="evenodd" clip-rule="evenodd" d="M89.552 107.513C88.6408 108.385 87.4771 108.916 86.2054 108.929C85.1673 108.94 84.1946 108.606 83.37 108.018C83.7707 106.733 84.9645 105.762 86.412 105.684C87.7917 105.61 89.0076 106.369 89.552 107.513Z" fill="#C35A5A"/>
<path fill-rule="evenodd" clip-rule="evenodd" d="M81.6134 101.674L89.9168 101.586C90.0575 102.655 89.6405 103.741 89.0244 103.983C88.2752 104.277 82.2646 104.158 81.8351 103.611C81.6272 103.347 81.5933 102.489 81.6134 101.674Z" fill="white"/>
<path fill-rule="evenodd" clip-rule="evenodd" d="M87.2719 94.4405C87.6863 95.2062 88.244 96.2925 88.4764 96.9974C89.154 99.0704 85.7465 100.357 85.5574 98.1781C85.4902 97.4007 85.6661 96.3195 85.9035 95.384C86.5396 92.8821 86.5786 93.1639 87.2719 94.4405Z" fill="#F1D3C8"/>
<path fill-rule="evenodd" clip-rule="evenodd" d="M50.7102 273.58L37.7024 316.897L135.775 313.89L124.088 277.666L53.7811 256.863L50.7102 273.58Z" fill="#D08174"/>
<path fill-rule="evenodd" clip-rule="evenodd" d="M101.605 132.605C101.605 132.605 122.658 141.994 124.447 143.132C126.236 144.27 127.049 145.217 127.049 145.217C127.049 145.217 124.204 161.138 125.504 182.369C126.805 203.599 122.902 233.17 122.902 233.17C122.902 233.17 124.528 248.903 126.805 256.297C129.082 263.689 123.552 270.703 123.552 270.703C89.6147 278.856 75.0006 265.281 50.5356 266.912C50.5356 266.912 45.6566 258.57 45.9009 255.443C46.1446 252.316 50.8615 210.044 51.5121 202.082C52.1627 194.122 46.1452 153.177 44.0314 146.922L69.7059 132.034C71.3224 131.296 73.1492 129.986 73.1492 127.774C73.1492 124.289 73.1486 125.089 73.1486 121.604C73.1486 121.604 73.31 121.149 73.5536 121.091C78.5651 126.051 92.5343 126.073 97.7574 121.664C98.0004 121.721 98.1618 122.175 98.1618 122.175V128.346C98.1618 130.558 99.9887 131.869 101.605 132.605Z" fill="#413B73"/>
<path fill-rule="evenodd" clip-rule="evenodd" d="M125.213 166.842C125.106 171.517 125.16 176.757 125.504 182.369C126.246 194.469 125.297 209.276 124.343 219.776C107.684 221.427 84.2876 221.629 76.6832 219.474C67.1495 216.77 55.73 216.847 50.1584 215.594C50.8083 209.433 51.3264 204.356 51.5123 202.082C51.8477 197.973 50.407 185.075 48.6436 172.697C52.0141 182.2 58.1377 181.79 58.1377 181.79C58.1377 181.79 109.096 177.409 116.865 175.754C124.635 174.098 124.835 166.502 124.835 166.502L125.213 166.842Z" fill="#262934"/>
<path fill-rule="evenodd" clip-rule="evenodd" d="M115.961 178.526C115.961 178.526 63.6607 182.165 61.0589 182.924C58.4565 183.683 55.8553 185.956 56.1147 191.719C56.3747 197.482 54.7312 239.629 44.5356 242.369C44.5356 242.369 44.1456 251.922 44.1456 255.106C44.1456 258.29 50.5355 266.911 50.5355 266.911L64.1801 269.967L104.251 277.246L123.61 270.903C123.61 270.903 128.125 265.342 128.32 260.642C128.516 255.941 125.068 222.805 125.068 222.805C125.068 222.805 119.474 191.415 118.823 187.018C118.172 182.62 118.172 178.412 115.961 178.526Z" fill="#D08174"/>
<path fill-rule="evenodd" clip-rule="evenodd" d="M48.8746 238.197C47.6368 240.418 46.2006 241.92 44.5351 242.368C44.5351 242.368 44.1451 251.922 44.1451 255.107C44.1451 255.407 44.2023 255.756 44.3059 256.142C47.6054 255.86 54.4676 255.091 58.3047 253.36C63.4838 251.023 96.0644 226.873 96.0644 226.873L127.142 243.993C126.415 236.026 125.56 227.598 125.219 224.274L94.0598 213.241L48.8746 238.197Z" fill="#BE7775"/>
<path fill-rule="evenodd" clip-rule="evenodd" d="M55.5889 210.619L57.0672 210.562C57.0672 210.562 64.3488 209.718 69.8796 209.723C75.4104 209.728 106.828 202.221 113.268 200.934C119.708 199.644 122.975 199.547 126.415 201.339C129.856 203.131 126.409 214.732 126.409 214.732L120.034 223.073L117.736 221.802C117.736 221.802 107.285 219.281 105.072 219.433C102.861 219.584 63.3101 241.876 60.9683 242.937C58.6271 243.999 55.5889 210.619 55.5889 210.619Z" fill="#E9BAA8"/>
<path fill-rule="evenodd" clip-rule="evenodd" d="M97.7121 222.95C96.2827 223.699 94.704 224.538 93.0291 225.436L75.7943 212.678L78.7729 211.487L100.576 220.056L97.7121 222.95Z" fill="#D58881"/>
<path fill-rule="evenodd" clip-rule="evenodd" d="M44.0316 146.922C44.0316 146.922 35.2503 151.66 33.6244 166.445C31.9985 181.23 32.4852 193.437 30.8593 203.863C29.2334 214.289 27.4449 225.852 28.9075 234.571C30.3713 243.29 37.6901 250.493 46.9593 249.924C50.8184 249.727 60.0783 247.848 60.7615 247.317C61.4448 246.786 61.6206 246.23 61.6206 246.23C64.0076 232.138 59.0571 210.621 58.8945 210.026C58.7318 209.429 58.2275 209.429 58.2275 209.429C57.4049 209.489 53.4284 209.944 51.8025 210.131C51.5092 210.153 51.2749 210.179 51.1066 210.212C51.1066 210.212 52.2571 207.971 50.954 207.922C50.954 207.922 51.7573 204.877 52.0015 198.81C52.2458 192.745 46.7986 152.369 44.0316 146.922Z" fill="#875371"/>
<path fill-rule="evenodd" clip-rule="evenodd" d="M117.481 207.237C117.481 207.237 88.437 202.802 83.7534 202.272C79.0698 201.741 68.1344 206.269 65.6331 207.283C63.1324 208.298 62.7079 210.037 62.7079 210.037L69.8796 209.723C69.8796 209.723 78.1881 213.677 83.2623 216.861C88.3359 220.047 116.698 233.846 117.739 234.149C118.78 234.453 117.481 207.237 117.481 207.237Z" fill="#E9BAA8"/>
<path fill-rule="evenodd" clip-rule="evenodd" d="M127.049 145.217C136.492 148.986 141.636 178.995 146.082 190.658C154.857 213.665 149.251 239.06 129.155 238.623L129.158 238.633C127.305 238.866 118.197 237.075 116.83 236.165C115.464 235.255 112.239 226.87 113.057 217.892C113.875 208.912 117.318 205.949 117.318 205.949L122.91 206.199C122.91 206.199 123.032 204.02 124.821 204.351L125.645 199.319C125.645 199.319 122.952 158.763 127.049 145.217Z" fill="#875371"/>
<path fill-rule="evenodd" clip-rule="evenodd" d="M112.365 137.446C112.365 137.446 113.763 169.398 114.283 175.16C114.283 175.16 114.479 176.07 113.568 176.336C112.657 176.601 110.25 176.753 110.25 176.753C110.25 176.753 109.566 176.715 109.339 176.032C109.112 175.35 106.008 134.578 106.008 134.578C106.008 134.578 106.465 134.348 106.66 134.367C106.855 134.386 111.832 136.529 111.832 136.529C111.832 136.529 112.222 136.755 112.365 137.446Z" fill="#D08174"/>
<path fill-rule="evenodd" clip-rule="evenodd" d="M60.3274 137.473C60.4159 138.574 63.3732 173.217 63.8862 178.905C63.8862 178.905 64.0816 179.814 63.171 180.08C62.2604 180.346 59.8539 180.497 59.8539 180.497C59.8539 180.497 59.1461 180.385 58.9426 179.776C58.7398 179.168 55.9766 154.685 54.59 140.8C54.7017 140.595 54.6722 140.306 54.9046 140.062C56.0061 138.902 58.4591 137.508 59.7559 137.301C59.9342 137.274 60.1924 137.456 60.3274 137.473Z" fill="#D08174"/>
<path fill-rule="evenodd" clip-rule="evenodd" d="M50.5354 266.911C50.5354 266.911 49.8157 270.737 49.9783 271.969C50.141 273.202 50.71 273.58 50.71 273.58C50.71 273.58 62.5013 272.253 87.382 279.076C112.263 285.901 124.217 279.362 124.786 278.887C125.355 278.413 123.864 271.711 123.553 270.703C89.6146 278.855 75.001 265.28 50.5354 266.911Z" fill="#875371"/>
<path fill-rule="evenodd" clip-rule="evenodd" d="M62.2776 179.026L60.4658 179.281C60.3986 179.293 60.3396 179.336 60.3 179.394C60.2611 179.452 60.2391 179.528 60.246 179.607C60.3684 180.946 60.5148 182.313 60.6636 183.65C60.6737 183.729 60.7101 183.798 60.7603 183.843C60.8106 183.889 60.8759 183.913 60.9431 183.907L62.7693 183.65C62.8396 183.641 62.9012 183.598 62.942 183.536C62.9834 183.475 63.0048 183.395 62.996 183.312L62.5784 179.281C62.5683 179.201 62.5319 179.133 62.4817 179.087C62.4314 179.042 62.3667 179.017 62.2983 179.023L62.2776 179.026ZM60.4212 178.695L62.2367 178.438C62.4427 178.412 62.6405 178.485 62.7932 178.624C62.947 178.766 63.055 178.976 63.0808 179.217L63.4971 183.243C63.5216 183.486 63.4595 183.721 63.3389 183.899C63.2183 184.078 63.0374 184.204 62.8283 184.234L61.0052 184.491C60.7993 184.518 60.6014 184.444 60.4488 184.305C60.295 184.165 60.187 183.955 60.1612 183.713C60.0337 182.368 59.8773 181.024 59.7442 179.679C59.7216 179.439 59.7838 179.208 59.9037 179.031C60.0243 178.852 60.2039 178.726 60.4118 178.695L60.4212 178.695Z" fill="white"/>
<path fill-rule="evenodd" clip-rule="evenodd" d="M112.63 175.042L110.819 175.297C110.751 175.309 110.693 175.351 110.653 175.409C110.615 175.468 110.593 175.544 110.599 175.623C110.721 176.962 110.868 178.329 111.017 179.665C111.027 179.744 111.064 179.813 111.114 179.859C111.164 179.905 111.229 179.93 111.297 179.922L113.123 179.667C113.192 179.656 113.254 179.614 113.295 179.553C113.336 179.491 113.358 179.411 113.349 179.329L112.931 175.297C112.921 175.218 112.885 175.149 112.835 175.103C112.785 175.057 112.72 175.033 112.652 175.04L112.63 175.042ZM110.774 174.711L112.59 174.455C112.796 174.429 112.994 174.501 113.147 174.642C113.3 174.782 113.408 174.991 113.434 175.234L113.85 179.259C113.875 179.502 113.812 179.736 113.692 179.916C113.571 180.096 113.391 180.222 113.182 180.25L111.359 180.507C111.152 180.533 110.954 180.46 110.802 180.321C110.648 180.181 110.54 179.971 110.515 179.729C110.387 178.384 110.23 177.04 110.097 175.695C110.075 175.456 110.137 175.224 110.257 175.046C110.378 174.868 110.557 174.742 110.765 174.713L110.774 174.711Z" fill="white"/>
<path fill-rule="evenodd" clip-rule="evenodd" d="M72.861 98.4804C74.5547 98.4431 75.9545 100.014 75.9865 101.988C76.0185 103.963 74.6715 105.595 72.9778 105.632C71.2834 105.669 69.883 104.099 69.851 102.124C69.8189 100.149 71.1672 98.5178 72.861 98.4804Z" fill="#D58881"/>
<path fill-rule="evenodd" clip-rule="evenodd" d="M99.251 97.8957C100.945 97.8591 102.345 99.4292 102.377 101.403C102.409 103.379 101.062 105.01 99.3679 105.048C97.6741 105.085 96.2737 103.515 96.241 101.54C96.209 99.5654 97.5567 97.9337 99.251 97.8957Z" fill="#D58881"/>
<path fill-rule="evenodd" clip-rule="evenodd" d="M99.9625 84.5735C100.353 84.8019 100.831 84.616 101.026 84.1599C101.222 83.7039 101.063 83.1469 100.674 82.9199C98.6236 81.6887 95.8824 81.546 93.8721 82.9514C93.4979 83.2142 93.3748 83.7852 93.599 84.2214C93.8225 84.6577 94.3136 84.8019 94.6879 84.5399C96.3031 83.4096 98.3265 83.6622 99.9625 84.5735Z" fill="#262934"/>
<path fill-rule="evenodd" clip-rule="evenodd" d="M72.263 84.5756C73.9014 83.6621 75.9255 83.4096 77.5407 84.5398C77.915 84.8018 78.4055 84.6576 78.6303 84.2213C78.8538 83.7851 78.7308 83.2141 78.3571 82.9513C76.3456 81.5459 73.605 81.6886 71.5565 82.9191C71.1646 83.1468 71.007 83.7038 71.2023 84.1599C71.3982 84.6159 71.8749 84.8018 72.263 84.5756Z" fill="#262934"/>
<path fill-rule="evenodd" clip-rule="evenodd" d="M97.6152 88.1867C98.0673 88.1867 98.4824 88.3755 98.8071 88.6888C98.9459 88.6471 99.1814 88.5373 99.312 88.2409C99.388 88.0703 99.567 88.003 99.7139 88.0915C99.8596 88.1794 99.9174 88.3887 99.8421 88.56C99.6882 88.9084 99.4514 89.1134 99.2354 89.2342L99.2498 89.2547C99.501 89.1859 99.7956 89.0321 100.029 88.6984C100.133 88.5505 100.321 88.5271 100.448 88.6478C100.576 88.7694 100.596 88.9882 100.491 89.1368C100.23 89.5116 99.9111 89.7268 99.6122 89.8476L99.6153 89.8527C99.8973 89.8337 100.209 89.7429 100.512 89.5175C100.65 89.415 100.836 89.4633 100.923 89.6258C101.011 89.7876 100.97 90.0028 100.831 90.1053C100.52 90.3373 100.204 90.4595 99.9049 90.5144L99.4891 90.5825V93.2214C99.4891 94.4226 98.6463 95.4064 97.6152 95.4064C96.584 95.4064 95.7412 94.4226 95.7412 93.2214V90.3717C95.7412 89.1698 96.584 88.1867 97.6152 88.1867Z" fill="#262934"/>
<path fill-rule="evenodd" clip-rule="evenodd" d="M74.6134 88.1867C74.1613 88.1867 73.7456 88.3755 73.4215 88.6888C73.2827 88.6471 73.0478 88.5373 72.9166 88.2409C72.8412 88.0703 72.661 88.003 72.5147 88.0915C72.369 88.1794 72.3112 88.3887 72.3872 88.56C72.5404 88.9084 72.7778 89.1134 72.9932 89.2342L72.9788 89.2547C72.7276 89.1859 72.433 89.0321 72.1994 88.6984C72.0952 88.5505 71.9074 88.5271 71.7805 88.6478C71.6531 88.7694 71.6336 88.9882 71.7366 89.1368C71.9991 89.5116 72.3175 89.7268 72.6164 89.8476L72.6126 89.8527C72.3313 89.8337 72.0198 89.7429 71.7165 89.5175C71.5777 89.415 71.3931 89.4633 71.3045 89.6258C71.2172 89.7876 71.258 90.0028 71.3975 90.1053C71.7089 90.3373 72.0248 90.4595 72.3238 90.5144L72.7389 90.5825V93.2214C72.7389 94.4226 73.5823 95.4064 74.6134 95.4064C75.6446 95.4064 76.488 94.4226 76.488 93.2214V90.3717C76.488 89.1698 75.6446 88.1867 74.6134 88.1867Z" fill="#262934"/>
<path fill-rule="evenodd" clip-rule="evenodd" d="M106.79 93.142C106.79 93.142 104.083 90.7081 104.083 85.7415C104.083 85.7415 95.5622 80.4836 96.7315 66.4621C96.7315 66.4621 97.0241 65.4885 96.1889 64.9527C95.3537 64.4176 92.6803 66.3655 90.9263 69.579C89.1723 72.7917 84.5778 78.4398 79.4822 75.0316C79.4822 75.0316 70.9603 94.415 62.189 84.2826C37.6411 55.9242 98.3065 18.0857 104.961 58.0887C104.961 58.0887 111.477 60.9128 112.813 64.9051C114.15 68.8975 109.282 87.0781 109.282 87.0781C109.282 87.0781 106.79 87.8855 106.79 93.142Z" fill="#262934"/>
<path d="M85.9266 133.302C82.8061 133.302 79.1317 132.825 74.9304 131.514C74.7621 131.461 74.6622 131.259 74.7068 131.064C74.7526 130.868 74.9247 130.75 75.0936 130.803C90.0708 135.479 98.1431 129.413 98.2222 129.352C98.3686 129.24 98.5639 129.284 98.66 129.453C98.7567 129.623 98.7171 129.852 98.572 129.964C98.5124 130.01 94.1333 133.302 85.9266 133.302Z" fill="#262934"/>
<path d="M113.891 232.742C113.852 232.742 113.811 232.733 113.772 232.715C105.141 228.593 87.0048 219.629 83.113 217.185C78.3421 214.191 70.6001 210.465 69.8233 210.095L62.72 210.404C62.6227 210.405 62.5222 210.357 62.46 210.264C62.3978 210.172 62.3765 210.048 62.4047 209.936C62.4236 209.857 62.904 208.001 65.5297 206.934L65.7997 206.826C74.6809 203.214 80.7329 201.556 83.7844 201.905C87.8381 202.364 109.732 205.685 116.346 206.692C116.519 206.718 116.641 206.904 116.619 207.106C116.595 207.308 116.435 207.442 116.265 207.423C111.558 206.706 87.8714 203.108 83.7228 202.637C80.7587 202.3 74.8008 203.945 66.0076 207.52L65.7369 207.63C64.231 208.242 63.5339 209.107 63.2287 209.645L69.8679 209.355C69.9093 209.354 69.9571 209.362 69.9985 209.383C70.0827 209.422 78.3817 213.38 83.412 216.538C87.2855 218.97 105.391 227.918 114.011 232.033C114.173 232.111 114.249 232.325 114.184 232.514C114.134 232.656 114.016 232.742 113.891 232.742Z" fill="#D58881"/>
<path d="M51.6313 192.998C51.4938 192.998 51.3669 192.892 51.328 192.731C51.2934 192.589 47.8319 178.595 41.8138 173.666C41.6712 173.549 41.6367 173.319 41.7365 173.153C41.8364 172.987 42.0336 172.947 42.1767 173.063C48.3789 178.143 51.7927 191.945 51.9352 192.529C51.983 192.725 51.8856 192.928 51.7173 192.984C51.6891 192.993 51.6595 192.998 51.6313 192.998Z" fill="#663B55"/>
<path d="M30.4658 206.769C30.4425 206.769 30.4187 206.766 30.3954 206.76C30.2253 206.715 30.1185 206.518 30.1574 206.32C30.1995 206.106 34.3393 184.938 34.8335 181.674C34.863 181.474 35.0263 181.336 35.1996 181.376C35.3717 181.411 35.486 181.602 35.4559 181.802C34.9591 185.084 30.8156 206.269 30.7735 206.483C30.7402 206.654 30.6096 206.769 30.4658 206.769Z" fill="#663B55"/>
<path d="M41.4101 222.809C41.373 222.809 41.3353 222.801 41.2989 222.786C41.1356 222.713 41.0534 222.502 41.1149 222.31C43.8015 213.993 50.8979 209.921 50.9695 209.88C51.1277 209.794 51.3155 209.87 51.3909 210.052C51.4669 210.235 51.4009 210.454 51.2445 210.544C51.1748 210.582 44.3014 214.533 41.7052 222.571C41.6581 222.717 41.5375 222.809 41.4101 222.809Z" fill="#663B55"/>
<path d="M41.9955 211.124C41.895 211.124 41.7977 211.069 41.7355 210.967C41.6363 210.8 41.6708 210.57 41.814 210.453C45.4495 207.498 50.7316 207.553 50.9589 207.555C51.1335 207.558 51.2723 207.725 51.2704 207.928C51.2679 208.129 51.1272 208.291 50.9545 208.291H50.9181C50.4735 208.291 45.4997 208.355 42.1757 211.057C42.1205 211.103 42.0577 211.124 41.9955 211.124Z" fill="#663B55"/>
<path d="M133.973 212.486C133.85 212.486 133.733 212.402 133.682 212.262C131.698 206.805 122.993 206.57 122.905 206.568C122.731 206.563 122.592 206.396 122.594 206.194C122.598 205.991 122.751 205.874 122.915 205.831C123.29 205.839 132.119 206.077 134.263 211.974C134.331 212.162 134.256 212.378 134.096 212.457C134.056 212.476 134.014 212.486 133.973 212.486Z" fill="#663B55"/>
<path d="M131.592 205.184C131.56 205.184 131.527 205.177 131.495 205.166C129.364 204.368 124.887 204.714 124.843 204.718C124.667 204.739 124.517 204.579 124.506 204.376C124.494 204.174 124.625 203.998 124.799 203.984C124.988 203.969 129.443 203.625 131.689 204.464C131.854 204.528 131.945 204.734 131.893 204.928C131.849 205.084 131.726 205.184 131.592 205.184Z" fill="#663B55"/>
<path d="M125.03 186.784C124.859 186.784 124.718 186.624 124.715 186.424C124.706 185.907 124.582 173.703 131.141 167.43C131.275 167.301 131.475 167.324 131.585 167.482C131.696 167.639 131.677 167.87 131.542 167.998C125.217 174.048 125.344 186.286 125.346 186.409C125.349 186.612 125.211 186.781 125.037 186.784H125.03Z" fill="#663B55"/>
<path d="M145.125 201.385C145.09 201.385 145.053 201.377 145.017 201.362C144.853 201.292 144.769 201.081 144.83 200.889C146.281 196.281 142.691 180.85 142.655 180.694C142.608 180.498 142.708 180.295 142.876 180.242C143.045 180.189 143.218 180.304 143.264 180.5C143.415 181.144 146.943 196.317 145.422 201.143C145.375 201.292 145.254 201.385 145.125 201.385Z" fill="#663B55"/>
<path d="M125.428 195.936C125.384 195.936 125.34 195.925 125.298 195.903C125.14 195.82 125.069 195.602 125.14 195.416C125.209 195.237 126.869 190.988 129.366 189.583C129.525 189.496 129.713 189.573 129.788 189.755C129.864 189.939 129.798 190.157 129.641 190.247C127.349 191.537 125.732 195.677 125.715 195.718C125.663 195.855 125.548 195.936 125.428 195.936Z" fill="#663B55"/>
<path d="M84.1425 138.575C83.9749 138.575 83.8355 138.422 83.8279 138.225C83.8191 138.021 83.9541 137.849 84.1281 137.839C94.6226 137.27 99.1888 131.056 99.2334 130.993C99.3458 130.837 99.5455 130.816 99.6786 130.946C99.8124 131.076 99.8306 131.307 99.7195 131.464C99.5292 131.73 94.9492 137.989 84.1576 138.575C84.1526 138.575 84.1476 138.575 84.1425 138.575Z" fill="#262934"/>
<path d="M113.131 303.039C112.985 303.039 112.853 302.919 112.822 302.745L108.645 278.986C108.61 278.787 108.721 278.592 108.892 278.552C109.059 278.504 109.229 278.638 109.264 278.837L113.441 302.597C113.476 302.796 113.366 302.991 113.195 303.031C113.174 303.037 113.153 303.039 113.131 303.039Z" fill="#875371"/>
<path d="M57.4949 317.84C57.4761 317.84 57.4572 317.838 57.439 317.834C57.2669 317.798 57.1533 317.607 57.184 317.407L61.5279 289.169C61.5587 288.968 61.7226 288.834 61.894 288.871C62.0661 288.907 62.1798 289.098 62.149 289.298L57.8051 317.536C57.7775 317.715 57.645 317.84 57.4949 317.84Z" fill="#875371"/>
<path d="M79.382 289.796C79.3688 289.796 79.3556 289.796 79.3418 289.793C79.1685 289.767 79.046 289.583 79.068 289.381L80.7391 274.191C80.7611 273.989 80.9256 273.852 81.0927 273.872C81.266 273.899 81.3878 274.082 81.3658 274.285L79.6947 289.475C79.6746 289.66 79.539 289.796 79.382 289.796Z" fill="#875371"/>
<path d="M128.503 316.087C128.361 316.087 128.232 315.975 128.197 315.807L125.189 301.59C125.148 301.393 125.251 301.193 125.42 301.145C125.591 301.099 125.761 301.218 125.803 301.415L128.81 315.631C128.852 315.828 128.749 316.027 128.579 316.076C128.554 316.083 128.528 316.087 128.503 316.087Z" fill="#875371"/>
<path d="M58.1891 268.994C58.0648 268.994 57.9467 268.907 57.8971 268.765C57.8061 268.507 55.6803 262.434 55.5101 260.846C55.4887 260.644 55.6118 260.461 55.7845 260.435C55.9597 260.406 56.1149 260.551 56.1368 260.754C56.297 262.246 58.4598 268.423 58.4818 268.487C58.5471 268.674 58.4705 268.889 58.3091 268.966C58.2695 268.984 58.2287 268.994 58.1891 268.994Z" fill="#875371"/>
<path d="M73.4509 271.295C73.3774 271.295 73.3039 271.266 73.2443 271.205C73.1124 271.071 73.098 270.84 73.2123 270.686C73.2443 270.642 76.4251 266.339 76.9853 263.445C77.023 263.248 77.1913 263.12 77.3633 263.167C77.5335 263.212 77.6403 263.409 77.6013 263.607C77.006 266.681 73.8246 270.986 73.6895 271.169C73.6267 271.251 73.5388 271.295 73.4509 271.295Z" fill="#875371"/>
<path d="M100.719 276.973C100.654 276.973 100.587 276.948 100.53 276.899C100.391 276.777 100.362 276.546 100.467 276.384C100.517 276.308 105.395 268.697 105.717 264.949C106.042 261.164 104.405 253.662 104.389 253.587C104.345 253.391 104.447 253.19 104.616 253.139C104.783 253.088 104.957 253.207 105.001 253.405C105.069 253.716 106.681 261.108 106.345 265.023C106.006 268.974 101.177 276.508 100.972 276.826C100.911 276.922 100.815 276.973 100.719 276.973Z" fill="#875371"/>
<path d="M117.643 273.827C117.586 273.827 117.527 273.808 117.475 273.77C117.328 273.661 117.283 273.433 117.377 273.262C117.412 273.198 120.913 266.701 120.753 263.451C120.743 263.248 120.876 263.074 121.051 263.062C121.222 263.04 121.373 263.205 121.384 263.408C121.555 266.894 118.059 273.381 117.91 273.655C117.85 273.766 117.748 273.827 117.643 273.827Z" fill="#875371"/>
<path fill-rule="evenodd" clip-rule="evenodd" d="M59.3007 58.6479C62.4131 60.5599 66.4944 61.3248 71.7677 59.4304C82.9901 55.4 91.9209 47.3239 100.403 46.8276C100.99 47.5698 101.533 48.3897 102.033 49.2827C98.6173 49.6714 94.5767 51.4436 90.3094 56.0537C81.2474 65.8464 68.2692 77.7809 56.4703 71.6204C56.0451 67.115 57.1529 62.6842 59.3007 58.6479Z" fill="#413B73"/>
<path fill-rule="evenodd" clip-rule="evenodd" d="M335.106 151.086C343.169 151.086 349.746 143.42 349.746 134.021C349.746 124.623 343.169 116.957 335.106 116.957C327.043 116.957 320.466 124.623 320.466 134.021C320.466 143.42 327.043 151.086 335.106 151.086Z" fill="#262934"/>
<path fill-rule="evenodd" clip-rule="evenodd" d="M310.968 157.118C319.032 157.118 325.608 149.452 325.608 140.054C325.608 130.655 319.032 122.989 310.968 122.989C302.905 122.989 296.328 130.655 296.328 140.054C296.328 149.452 302.905 157.118 310.968 157.118Z" fill="#262934"/>
<path fill-rule="evenodd" clip-rule="evenodd" d="M319.991 129.268C328.054 129.268 334.631 121.602 334.631 112.204C334.631 102.806 328.054 95.1393 319.991 95.1393C311.928 95.1393 305.352 102.806 305.352 112.204C305.352 121.602 311.928 129.268 319.991 129.268Z" fill="#262934"/>
<path fill-rule="evenodd" clip-rule="evenodd" d="M342.715 129.852C350.777 129.852 357.354 122.185 357.354 112.787C357.354 103.388 350.777 95.7229 342.715 95.7229C334.651 95.7229 328.075 103.388 328.075 112.787C328.075 122.185 334.651 129.852 342.715 129.852Z" fill="#262934"/>
<path fill-rule="evenodd" clip-rule="evenodd" d="M309.004 91.6794C311.787 91.6794 314.057 89.0318 314.057 85.7876C314.057 82.5434 311.787 79.8964 309.004 79.8964C306.219 79.8964 303.949 82.5434 303.949 85.7876C303.949 89.0318 306.219 91.6794 309.004 91.6794Z" fill="#262934"/>
<path fill-rule="evenodd" clip-rule="evenodd" d="M308.669 81.9414C312.304 81.9414 315.269 78.4857 315.269 74.2481C315.269 70.012 312.304 66.5555 308.669 66.5555C305.033 66.5555 302.069 70.012 302.069 74.2481C302.069 78.4857 305.033 81.9414 308.669 81.9414Z" fill="#262934"/>
<path fill-rule="evenodd" clip-rule="evenodd" d="M313.18 70.6465C318.471 70.6465 322.787 65.6155 322.787 59.4477C322.787 53.2798 318.471 48.2495 313.18 48.2495C307.888 48.2495 303.573 53.2798 303.573 59.4477C303.573 65.6155 307.888 70.6465 313.18 70.6465Z" fill="#262934"/>
<path fill-rule="evenodd" clip-rule="evenodd" d="M329.013 73.3752C337.077 73.3752 343.653 65.7096 343.653 56.3108C343.653 46.9126 337.077 39.2464 329.013 39.2464C320.95 39.2464 314.373 46.9126 314.373 56.3108C314.373 65.7096 320.95 73.3752 329.013 73.3752Z" fill="#262934"/>
<path fill-rule="evenodd" clip-rule="evenodd" d="M343.801 65.9955C348.515 65.9955 352.36 61.5141 352.36 56.019C352.36 50.5239 348.515 46.0419 343.801 46.0419C339.086 46.0419 335.24 50.5239 335.24 56.019C335.24 61.5141 339.086 65.9955 343.801 65.9955Z" fill="#262934"/>
<path fill-rule="evenodd" clip-rule="evenodd" d="M351.172 81.5458C356.036 81.5458 360.003 76.9225 360.003 71.2525C360.003 65.5824 356.036 60.9583 351.172 60.9583C346.309 60.9583 342.341 65.5824 342.341 71.2525C342.341 76.9225 346.309 81.5458 351.172 81.5458Z" fill="#262934"/>
<path fill-rule="evenodd" clip-rule="evenodd" d="M351.423 92.2092C354.838 92.2092 357.623 88.962 357.623 84.9821C357.623 81.0015 354.838 77.7558 351.423 77.7558C348.007 77.7558 345.223 81.0015 345.223 84.9821C345.223 88.962 348.007 92.2092 351.423 92.2092Z" fill="#262934"/>
<path fill-rule="evenodd" clip-rule="evenodd" d="M363.924 289.853L367.528 291.607L373.481 314.392L331.136 324.713L288.793 314.392L294.745 291.607L298.349 289.853L331.136 291.997L363.924 289.853Z" fill="#6181A4"/>
<path fill-rule="evenodd" clip-rule="evenodd" d="M367.804 284.093L369.158 288.393C369.158 288.393 369.91 290.536 367.404 291.606C351.833 298.261 310.44 298.261 294.869 291.606C292.362 290.536 293.113 288.393 293.113 288.393L294.469 284.093H367.804Z" fill="#875371"/>
<path fill-rule="evenodd" clip-rule="evenodd" d="M320.671 134.167H341.602V116.683H320.671V134.167Z" fill="#D58881"/>
<path fill-rule="evenodd" clip-rule="evenodd" d="M367.651 141.75C373.098 144.573 374.46 146.337 382.329 165.739C390.198 185.141 395.948 202.074 395.948 202.074C395.948 202.074 399.956 204.103 400.713 206.308C401.471 208.513 400.865 213.363 400.865 213.363C400.865 213.363 405.858 220.419 404.346 228.71C402.832 237.001 396.552 246.7 394.661 247.847C392.77 248.993 387.7 247.847 387.7 247.847C387.7 247.847 366.442 233.998 361.599 219.182C356.757 204.365 353.124 152.508 367.651 141.75Z" fill="#875371"/>
<path fill-rule="evenodd" clip-rule="evenodd" d="M294.622 141.75C289.175 144.573 287.812 146.337 279.944 165.739C272.075 185.141 266.325 202.074 266.325 202.074C266.325 202.074 262.315 204.103 261.559 206.308C260.802 208.513 261.407 213.363 261.407 213.363C261.407 213.363 256.413 220.419 257.928 228.71C259.44 237.001 265.721 246.7 267.612 247.847C269.503 248.993 274.573 247.847 274.573 247.847C274.573 247.847 295.832 233.998 300.674 219.182C305.517 204.365 309.148 152.508 294.622 141.75Z" fill="#875371"/>
<path fill-rule="evenodd" clip-rule="evenodd" d="M331.136 134.165H342.834L367.651 141.75C367.651 141.75 360.086 163.266 365.533 181.965C365.533 181.965 367.803 195.016 366.593 205.071C365.381 215.126 368.862 256.928 370.376 265.924C371.89 274.921 369.922 280.212 367.804 284.093C341.212 291.471 321.06 291.471 294.469 284.093C292.35 280.212 290.383 274.921 291.896 265.924C293.411 256.928 296.89 215.126 295.68 205.071C294.469 195.016 296.738 181.965 296.738 181.965C302.186 163.266 294.622 141.75 294.622 141.75L319.439 134.165H331.136Z" fill="white"/>
<path fill-rule="evenodd" clip-rule="evenodd" d="M367.946 242.313C368.652 251.191 369.458 259.327 370.071 263.867L293.669 257.524L293.193 255.084C293.477 252.226 293.769 249.031 294.052 245.668L304.612 240.776C304.612 240.776 352.942 241.783 367.946 242.313Z" fill="#CCCED6"/>
<path fill-rule="evenodd" clip-rule="evenodd" d="M297.958 177.399C301.608 177.399 304.595 180.879 304.595 185.135V214.318C304.595 218.572 301.608 222.052 297.958 222.052C294.308 222.052 291.323 218.572 291.323 214.318V185.135C291.323 180.879 294.308 177.399 297.958 177.399Z" fill="#4B9A5C"/>
<path fill-rule="evenodd" clip-rule="evenodd" d="M311.231 177.399C307.581 177.399 304.595 180.879 304.595 185.135V214.318C304.595 218.572 307.581 222.052 311.231 222.052C314.881 222.052 317.867 218.572 317.867 214.318V185.135C317.867 180.879 314.881 177.399 311.231 177.399Z" fill="#A0CDBC"/>
<path fill-rule="evenodd" clip-rule="evenodd" d="M324.503 177.399H324.503C328.153 177.399 331.138 180.879 331.138 185.135V214.318C331.138 218.572 328.153 222.052 324.503 222.052H324.503C320.852 222.052 317.867 218.572 317.867 214.318V185.135C317.867 180.879 320.852 177.399 324.503 177.399Z" fill="#6181A4"/>
<path fill-rule="evenodd" clip-rule="evenodd" d="M337.776 177.399H337.775C334.125 177.399 331.139 180.879 331.139 185.135V214.318C331.139 218.572 334.125 222.052 337.775 222.052H337.776C341.426 222.052 344.411 218.572 344.411 214.318V185.135C344.411 180.879 341.426 177.399 337.776 177.399Z" fill="#839FD1"/>
<path fill-rule="evenodd" clip-rule="evenodd" d="M351.047 177.399C354.697 177.399 357.682 180.879 357.682 185.135V214.318C357.682 218.572 354.697 222.052 351.047 222.052C347.397 222.052 344.411 218.572 344.411 214.318V185.135C344.411 180.879 347.397 177.399 351.047 177.399Z" fill="#4B9A5C"/>
<path fill-rule="evenodd" clip-rule="evenodd" d="M364.318 177.399C360.669 177.399 357.682 180.879 357.682 185.135V214.318C357.682 218.572 360.669 222.052 364.318 222.052C367.969 222.052 370.955 218.572 370.955 214.318V185.135C370.955 180.879 367.969 177.399 364.318 177.399Z" fill="#A0CDBC"/>
<path fill-rule="evenodd" clip-rule="evenodd" d="M370.955 187.31C367.305 187.31 364.318 190.79 364.318 195.045V224.229C364.318 228.483 367.305 231.963 370.955 231.963C374.605 231.963 377.59 228.483 377.59 224.229V195.045C377.59 190.79 374.605 187.31 370.955 187.31Z" fill="#4B9A5C"/>
<path fill-rule="evenodd" clip-rule="evenodd" d="M357.682 187.31H357.684C361.334 187.31 364.318 190.79 364.318 195.045V224.229C364.318 228.483 361.334 231.963 357.684 231.963H357.682C354.032 231.963 351.047 228.483 351.047 224.229V195.045C351.047 190.79 354.032 187.31 357.682 187.31Z" fill="#A0CDBC"/>
<path fill-rule="evenodd" clip-rule="evenodd" d="M344.411 187.31H344.41C340.76 187.31 337.775 190.79 337.775 195.045V224.229C337.775 228.483 340.76 231.963 344.41 231.963H344.411C348.061 231.963 351.046 228.483 351.046 224.229V195.045C351.046 190.79 348.061 187.31 344.411 187.31Z" fill="#6181A4"/>
<path fill-rule="evenodd" clip-rule="evenodd" d="M331.138 187.31H331.139C334.789 187.31 337.774 190.79 337.774 195.045V224.229C337.774 228.483 334.789 231.963 331.139 231.963H331.138C327.488 231.963 324.503 228.483 324.503 224.229V195.045C324.503 190.79 327.488 187.31 331.138 187.31Z" fill="#839FD1"/>
<path fill-rule="evenodd" clip-rule="evenodd" d="M317.867 187.31C314.216 187.31 311.231 190.79 311.231 195.045V224.229C311.231 228.483 314.216 231.963 317.867 231.963C321.517 231.963 324.503 228.483 324.503 224.229V195.045C324.503 190.79 321.517 187.31 317.867 187.31Z" fill="#4B9A5C"/>
<path fill-rule="evenodd" clip-rule="evenodd" d="M304.595 187.31C308.245 187.31 311.231 190.79 311.231 195.045V224.229C311.231 228.483 308.245 231.963 304.595 231.963C300.945 231.963 297.959 228.483 297.959 224.229V195.045C297.959 190.79 300.945 187.31 304.595 187.31Z" fill="#A0CDBC"/>
<path fill-rule="evenodd" clip-rule="evenodd" d="M291.323 187.31C287.673 187.31 284.686 190.79 284.686 195.045V224.229C284.686 228.483 287.673 231.963 291.323 231.963C294.973 231.963 297.958 228.483 297.958 224.229V195.045C297.958 190.79 294.973 187.31 291.323 187.31Z" fill="#4B9A5C"/>
<path fill-rule="evenodd" clip-rule="evenodd" d="M364.246 221.555H298.031C296.067 219.377 291.552 214.377 290.699 213.486C289.601 212.339 287.596 212.295 287.596 212.295H281.883C279.084 212.295 279.312 214.853 279.312 214.853V225.278C279.308 225.347 279.307 225.415 279.307 225.484V251.846C279.307 254.006 280.824 255.774 282.678 255.774H379.596C381.45 255.774 382.966 254.006 382.966 251.846V230.727V225.484V214.853C382.966 214.853 383.193 212.295 380.395 212.295H374.68C374.68 212.295 372.676 212.339 371.579 213.486C370.725 214.377 366.21 219.377 364.246 221.555Z" fill="#D08174"/>
<path fill-rule="evenodd" clip-rule="evenodd" d="M279.307 243.671V251.846C279.307 254.006 280.824 255.774 282.678 255.774H292.408L292.416 255.755L284.98 243.017C282.557 242.832 280.708 243.101 279.307 243.671Z" fill="#B67375"/>
<path fill-rule="evenodd" clip-rule="evenodd" d="M369.2 255.774H379.596C379.935 255.774 380.262 255.715 380.572 255.606C381.084 253.279 382.079 247.1 382.966 241.355V232.317L376.195 242.466L373.95 249.807L369.2 255.774Z" fill="#BE7775"/>
<path fill-rule="evenodd" clip-rule="evenodd" d="M384.394 235.003C384.188 235.203 383.986 235.375 383.799 235.487C382.966 235.995 380.43 237.32 379.013 238.334C378.237 238.889 373.055 247.571 372.828 248.276C372.601 248.982 374.104 250.59 375.438 249.643C377.179 248.409 379.979 245.85 379.979 245.85L375.552 253.258C375.552 253.258 374.493 255.774 372.866 255.774H367.683C365.791 255.774 364.468 257.095 363.863 258.33C363.257 259.564 364.391 260.006 366.018 260.006H369.121C369.121 260.006 368.969 260.932 370.596 260.932H378.882C380.811 260.932 382.703 259.343 383.611 257.535C384.518 255.728 389.135 250.304 389.967 248.099C390.357 247.066 390.784 245.511 391.218 243.982L391.22 243.979L391.221 243.975L391.337 243.57C392.43 238.988 388.537 233.01 384.394 235.003Z" fill="#E9BAA8"/>
<path fill-rule="evenodd" clip-rule="evenodd" d="M277.88 235.003C278.084 235.203 278.289 235.375 278.474 235.487C279.307 235.995 281.842 237.32 283.26 238.334C284.035 238.889 289.219 247.571 289.444 248.276C289.672 248.982 288.169 250.59 286.834 249.643C285.094 248.409 282.295 245.85 282.295 245.85L286.721 253.258C286.721 253.258 287.78 255.774 289.406 255.774H294.59C296.48 255.774 297.806 257.095 298.41 258.33C299.017 259.564 297.882 260.006 296.255 260.006H293.151C293.151 260.006 293.303 260.932 291.677 260.932H283.391C281.461 260.932 279.57 259.343 278.663 257.535C277.755 255.728 273.138 250.304 272.307 248.099C271.917 247.066 271.489 245.511 271.053 243.982L271.053 243.979L271.052 243.975L270.937 243.57C269.843 238.988 273.736 233.01 277.88 235.003Z" fill="#E9BAA8"/>
<path fill-rule="evenodd" clip-rule="evenodd" d="M319.439 134.165V124.385C319.439 124.385 319.819 123.303 320.671 123.303C323.327 126.643 338.946 126.643 341.603 123.303C342.454 123.303 342.834 124.385 342.834 124.385V134.165C336.866 137.663 325.407 137.663 319.439 134.165Z" fill="#875371"/>
<path fill-rule="evenodd" clip-rule="evenodd" d="M352.929 88.4237C353.079 88.4471 353.227 88.4757 353.373 88.5115L353.376 88.513C356.071 89.1703 358.116 91.9248 358.172 95.2686C358.234 99.1548 355.582 102.366 352.247 102.44C348.913 102.514 346.158 99.4227 346.095 95.5365C346.057 93.2768 346.937 91.247 348.336 89.9279C348.182 92.0061 348.465 94.5783 350.742 94.836L350.675 90.7778C350.648 89.1345 351.963 88.3783 352.929 88.4237Z" fill="#D58881"/>
<path fill-rule="evenodd" clip-rule="evenodd" d="M309.342 88.4237C309.193 88.4471 309.046 88.4757 308.9 88.5115L308.896 88.513C306.202 89.1703 304.156 91.9248 304.102 95.2686C304.039 99.1548 306.691 102.366 310.025 102.44C313.36 102.514 316.115 99.4227 316.179 95.5365C316.216 93.2768 315.335 91.247 313.937 89.9279C314.091 92.0061 313.806 94.5783 311.531 94.836L311.597 90.7778C311.624 89.1345 310.31 88.3783 309.342 88.4237Z" fill="#D58881"/>
<path fill-rule="evenodd" clip-rule="evenodd" d="M331.135 53.2612C342.508 53.2612 351.812 64.1065 351.812 77.3616V99.282C351.812 112.537 342.508 123.382 331.135 123.382C319.765 123.382 310.46 112.537 310.46 99.282V77.3616C310.46 64.1065 319.765 53.2612 331.135 53.2612Z" fill="#E9BAA8"/>
<path fill-rule="evenodd" clip-rule="evenodd" d="M336.53 104.39C336.557 107.834 334.183 110.652 331.228 110.681C328.273 110.713 325.856 107.947 325.828 104.502H325.838C325.834 103.91 326.245 103.421 326.754 103.415L335.588 103.322C336.096 103.317 336.516 103.798 336.52 104.389L336.53 104.39Z" fill="#262934"/>
<path fill-rule="evenodd" clip-rule="evenodd" d="M334.574 109.266C333.663 110.139 332.499 110.669 331.228 110.683C330.189 110.694 329.218 110.358 328.392 109.77C328.793 108.487 329.987 107.516 331.434 107.437C332.814 107.363 334.03 108.123 334.574 109.266Z" fill="#C35A5A"/>
<path fill-rule="evenodd" clip-rule="evenodd" d="M326.636 103.427L334.939 103.339C335.08 104.408 334.662 105.495 334.047 105.737C333.297 106.03 327.287 105.912 326.857 105.364C326.65 105.101 326.615 104.243 326.636 103.427Z" fill="white"/>
<path fill-rule="evenodd" clip-rule="evenodd" d="M341.395 89.739C340.57 89.739 339.893 90.5266 339.893 91.4899V93.7715C339.893 94.7349 340.57 95.5225 341.395 95.5225C342.222 95.5225 342.898 94.7349 342.898 93.7715V91.4899C342.898 90.5266 342.222 89.739 341.395 89.739Z" fill="#262934"/>
<path fill-rule="evenodd" clip-rule="evenodd" d="M320.093 89.739C319.268 89.739 318.591 90.5266 318.591 91.4899V93.7715C318.591 94.7349 319.268 95.5225 320.093 95.5225C320.919 95.5225 321.595 94.7349 321.595 93.7715V91.4899C321.595 90.5266 320.919 89.739 320.093 89.739Z" fill="#262934"/>
<path fill-rule="evenodd" clip-rule="evenodd" d="M332.294 96.194C332.709 96.959 333.266 98.046 333.499 98.7502C334.176 100.823 330.768 102.11 330.579 99.9316C330.513 99.155 330.688 98.0723 330.925 97.1376C331.563 94.6363 331.601 94.9174 332.294 96.194Z" fill="#F1D3C8"/>
<path fill-rule="evenodd" clip-rule="evenodd" d="M318.884 99.1974C320.45 99.1623 321.745 100.615 321.775 102.439C321.803 104.265 320.558 105.774 318.992 105.809C317.427 105.843 316.132 104.391 316.102 102.566C316.072 100.74 317.319 99.2311 318.884 99.1974Z" fill="#D58881"/>
<path fill-rule="evenodd" clip-rule="evenodd" d="M343.281 98.657C344.847 98.6226 346.141 100.075 346.171 101.9C346.201 103.726 344.955 105.234 343.389 105.268C341.822 105.303 340.529 103.851 340.498 102.026C340.469 100.2 341.714 98.6914 343.281 98.657Z" fill="#D58881"/>
<path fill-rule="evenodd" clip-rule="evenodd" d="M343.939 86.3403C344.3 86.5519 344.741 86.3806 344.921 85.9589C345.103 85.5373 344.957 85.022 344.597 84.8119C342.701 83.6729 340.167 83.5426 338.308 84.8419C337.961 85.0842 337.848 85.612 338.056 86.0153C338.263 86.4186 338.716 86.5519 339.061 86.3096C340.556 85.265 342.426 85.4985 343.939 86.3403Z" fill="#262934"/>
<path fill-rule="evenodd" clip-rule="evenodd" d="M318.332 86.342C319.846 85.498 321.717 85.2653 323.211 86.3098C323.556 86.5514 324.011 86.4182 324.218 86.0156C324.424 85.6122 324.31 85.0837 323.966 84.8422C322.106 83.5429 319.573 83.6732 317.679 84.8122C317.317 85.0222 317.17 85.5368 317.35 85.9592C317.532 86.3801 317.974 86.5514 318.332 86.342Z" fill="#262934"/>
<path fill-rule="evenodd" clip-rule="evenodd" d="M341.768 89.6807C342.185 89.6807 342.57 89.8556 342.87 90.1448C342.999 90.1075 343.216 90.005 343.337 89.7305C343.407 89.5738 343.573 89.5116 343.708 89.5929C343.844 89.6748 343.897 89.8681 343.827 90.0262C343.686 90.3483 343.466 90.5379 343.267 90.6499L343.279 90.6689C343.512 90.6052 343.784 90.4625 344 90.1536C344.097 90.0167 344.27 89.9955 344.388 90.1082C344.506 90.2194 344.523 90.4215 344.427 90.5591C344.185 90.9061 343.892 91.1044 343.615 91.2164L343.618 91.2216C343.878 91.204 344.166 91.1205 344.447 90.9112C344.575 90.8168 344.746 90.8614 344.828 91.0107C344.908 91.1615 344.869 91.3599 344.741 91.4543C344.453 91.6681 344.162 91.783 343.886 91.8328L343.502 91.8957V94.3348C343.502 95.4459 342.722 96.3551 341.769 96.3551C340.817 96.3551 340.036 95.4459 340.036 94.3348V91.701C340.036 90.5898 340.816 89.6807 341.768 89.6807Z" fill="#262934"/>
<path fill-rule="evenodd" clip-rule="evenodd" d="M320.505 89.6807C320.088 89.6807 319.703 89.8556 319.402 90.1448C319.276 90.1075 319.058 90.005 318.936 89.7305C318.866 89.5738 318.7 89.5116 318.565 89.5929C318.429 89.6748 318.376 89.8681 318.447 90.0262C318.587 90.3483 318.807 90.5379 319.007 90.6499L318.994 90.6689C318.761 90.6052 318.489 90.4625 318.273 90.1536C318.177 90.0167 318.003 89.9955 317.886 90.1082C317.768 90.2194 317.75 90.4215 317.846 90.5591C318.088 90.9061 318.383 91.1044 318.659 91.2164L318.656 91.2216C318.394 91.204 318.107 91.1205 317.827 90.9112C317.698 90.8168 317.528 90.8614 317.446 91.0107C317.365 91.1615 317.403 91.3599 317.532 91.4543C317.82 91.6681 318.111 91.783 318.388 91.8328L318.772 91.8957V94.3348C318.772 95.4459 319.552 96.3551 320.504 96.3551C321.457 96.3551 322.237 95.4459 322.237 94.3348V91.701C322.237 90.5898 321.458 89.6807 320.505 89.6807Z" fill="#262934"/>
<path fill-rule="evenodd" clip-rule="evenodd" d="M320.015 100.879C324.38 100.879 327.918 96.755 327.918 91.6676C327.918 86.5802 324.38 82.4554 320.015 82.4554C315.65 82.4554 312.112 86.5802 312.112 91.6676C312.112 96.755 315.65 100.879 320.015 100.879ZM342.084 100.879C346.448 100.879 349.986 96.755 349.986 91.6676C349.986 86.5802 346.448 82.4554 342.084 82.4554C337.718 82.4554 334.18 86.5802 334.18 91.6676C334.18 96.755 337.718 100.879 342.084 100.879ZM311.662 86.0166C312.322 85.1287 313.575 83.9794 314.327 83.3214C314.521 83.142 314.717 82.9707 314.923 82.809C314.931 82.8031 314.936 82.798 314.936 82.798C316.389 81.6648 318.135 81.0053 320.015 81.0053C322.547 81.0053 324.839 82.2036 326.494 84.1412C327.297 85.0145 327.987 85.9705 328.702 86.9081C329.608 88.0947 330.144 87.5121 331.048 87.5121C331.955 87.5121 332.49 88.0947 333.396 86.9081C334.11 85.9705 334.801 85.0145 335.603 84.1412C337.26 82.2036 339.579 81.0053 342.111 81.0053C343.99 81.0053 345.85 81.6656 347.219 82.7987C347.219 82.7987 347.196 82.8031 347.204 82.809C347.41 82.9707 347.595 83.142 347.788 83.3214C348.538 83.9794 349.824 85.1287 350.484 86.0166C350.81 86.4536 351.261 86.7552 351.721 86.9645V91.1113C351.523 91.7899 351.293 93.0211 350.969 94.2955C350.838 94.9009 350.651 95.4843 350.435 96.0442C350.233 96.5991 349.997 97.1144 349.727 97.5368L349.723 97.5346C348.087 100.423 345.277 102.331 342.085 102.331C338.378 102.331 335.188 99.7591 333.75 96.0647C333.748 96.0611 333.745 96.0589 333.743 96.0545C333.736 96.0406 333.729 96.0274 333.722 96.0135C333.066 94.7142 332.405 91.1567 332.105 90.5901C331.803 90.0184 331.048 89.9745 331.048 89.9745C331.048 89.9745 330.294 90.0184 329.993 90.5901C329.694 91.1567 329.033 94.7142 328.376 96.0135C328.371 96.0274 328.361 96.0406 328.355 96.0545C328.353 96.0589 328.351 96.0611 328.348 96.0647C326.912 99.7591 323.722 102.331 320.015 102.331C316.823 102.331 314.013 100.423 312.378 97.5346L312.376 97.5368C312.106 97.1144 311.874 96.5991 311.674 96.0442C311.457 95.485 311.28 94.9009 311.147 94.2955C310.85 93.1192 310.64 91.9802 310.46 91.2775V86.9521C310.906 86.7449 311.344 86.4455 311.662 86.0166Z" fill="#262934"/>
<path fill-rule="evenodd" clip-rule="evenodd" d="M351.812 96.0593C351.812 96.0593 348.894 93.5273 348.894 83.4001C348.894 83.4001 344.383 79.9919 344.299 73.1762C344.299 73.1762 340.873 77.1685 339.37 75.6101C337.866 74.0524 340.706 71.131 340.706 71.131C340.706 71.131 327.089 81.6484 324.165 72.9815C324.165 72.9815 319.236 78.3375 316.395 74.0532C316.395 74.0532 316.896 80.6741 313.221 82.3291C313.221 82.3291 313.713 93.2359 310.46 94.4042C310.46 94.4042 310.103 88.1573 307.422 89.1148C307.422 89.1148 305.828 67.4813 310.172 61.0543C314.517 54.6281 329.721 44.8903 339.244 49.7588C348.767 54.6281 355.284 66.507 353.781 76.2448C352.277 85.9818 355.058 89.2421 355.058 89.2421C355.058 89.2421 351.721 90.7047 351.812 96.0593Z" fill="#262934"/>
<path d="M331.719 311.294C331.546 311.294 331.403 311.129 331.403 310.926V296.597C331.403 296.395 331.546 296.229 331.719 296.229C331.893 296.229 332.035 296.395 332.035 296.597V310.926C332.035 311.129 331.893 311.294 331.719 311.294Z" fill="#566A92"/>
<path d="M331.719 309.115C331.637 309.115 331.555 309.077 331.494 309.004L327.277 303.989C327.218 303.921 327.186 303.828 327.186 303.732V296.562C327.186 296.358 327.328 296.194 327.502 296.194C327.677 296.194 327.818 296.358 327.818 296.562V303.581L331.944 308.489C332.066 308.635 332.065 308.867 331.94 309.009C331.878 309.079 331.799 309.115 331.719 309.115Z" fill="#566A92"/>
<path d="M367.85 303.565C367.837 303.565 367.824 303.563 367.811 303.561C367.375 303.497 357.123 301.983 355.584 300.987C354.018 299.973 351.962 295.65 351.875 295.467C351.791 295.289 351.847 295.065 352 294.966C352.151 294.871 352.346 294.932 352.429 295.111C352.449 295.154 354.482 299.432 355.89 300.343C357.08 301.113 364.955 302.4 367.889 302.831C368.062 302.856 368.185 303.041 368.163 303.243C368.143 303.428 368.008 303.565 367.85 303.565Z" fill="#566A92"/>
<path d="M369.855 311.294C369.72 311.294 369.595 311.193 369.553 311.035L364.682 292.631C364.63 292.435 364.724 292.229 364.89 292.169C365.06 292.109 365.234 292.219 365.285 292.412L370.156 310.818C370.208 311.013 370.113 311.218 369.948 311.278C369.917 311.289 369.885 311.294 369.855 311.294Z" fill="#566A92"/>
<path d="M296.021 303.565C295.864 303.565 295.727 303.428 295.707 303.243C295.686 303.041 295.808 302.856 295.982 302.831C298.914 302.4 306.791 301.113 307.981 300.343C309.389 299.431 311.421 295.154 311.442 295.111C311.525 294.932 311.721 294.871 311.871 294.966C312.024 295.065 312.079 295.289 311.995 295.467C311.908 295.65 309.853 299.973 308.287 300.987C306.748 301.983 296.496 303.497 296.059 303.561C296.046 303.563 296.034 303.565 296.021 303.565Z" fill="#566A92"/>
<path d="M294.016 311.294C293.985 311.294 293.954 311.289 293.923 311.278C293.756 311.218 293.663 311.013 293.714 310.818L298.586 292.412C298.637 292.219 298.81 292.109 298.981 292.169C299.147 292.229 299.241 292.437 299.19 292.631L294.317 311.035C294.276 311.193 294.151 311.294 294.016 311.294Z" fill="#566A92"/>
<path d="M261.407 213.732C261.321 213.732 261.235 213.69 261.172 213.61C261.056 213.46 261.066 213.226 261.196 213.089C261.28 213.004 269.594 204.455 277.728 211.268C277.869 211.387 277.903 211.616 277.8 211.783C277.697 211.947 277.5 211.984 277.359 211.867C269.642 205.399 261.698 213.553 261.619 213.637C261.558 213.7 261.483 213.732 261.407 213.732Z" fill="#663B55"/>
<path d="M266.325 202.442C266.221 202.442 266.118 202.382 266.057 202.272C265.965 202.098 266.009 201.871 266.156 201.763C266.28 201.672 278.546 192.62 282.641 186.51C282.749 186.351 282.948 186.322 283.084 186.447C283.222 186.571 283.246 186.803 283.139 186.963C278.976 193.174 267.001 202.013 266.494 202.386C266.441 202.425 266.383 202.442 266.325 202.442Z" fill="#663B55"/>
<path d="M294.953 178.611C294.793 178.611 294.654 178.47 294.639 178.28C294.626 178.147 293.397 164.852 289.192 160.326C289.064 160.188 289.055 159.955 289.174 159.806C289.293 159.658 289.492 159.647 289.62 159.785C294.001 164.499 295.217 177.648 295.267 178.205C295.285 178.408 295.159 178.588 294.985 178.609C294.975 178.61 294.963 178.611 294.953 178.611Z" fill="#663B55"/>
<path d="M366.856 178.357C366.83 178.357 366.803 178.353 366.776 178.346C366.607 178.294 366.506 178.092 366.551 177.896C366.678 177.334 369.716 164.08 374.895 158.043C375.019 157.899 375.218 157.899 375.343 158.043C375.465 158.186 375.465 158.419 375.343 158.563C370.282 164.462 367.192 177.948 367.161 178.083C367.124 178.248 366.996 178.357 366.856 178.357Z" fill="#663B55"/>
<path d="M368.725 171.736C368.648 171.736 368.571 171.703 368.509 171.636C368.382 171.497 368.375 171.265 368.496 171.117C368.585 171.005 370.735 168.376 374.216 167.485C374.39 167.444 374.554 167.568 374.591 167.767C374.629 167.966 374.521 168.161 374.351 168.205C371.059 169.047 368.976 171.594 368.955 171.619C368.893 171.697 368.81 171.736 368.725 171.736Z" fill="#663B55"/>
<path d="M395.948 202.442C395.891 202.442 395.834 202.425 395.783 202.387C395.698 202.327 387.268 196.221 380.952 184.792C380.858 184.621 380.9 184.393 381.047 184.283C381.192 184.176 381.389 184.222 381.483 184.394C387.717 195.673 396.03 201.701 396.113 201.761C396.262 201.868 396.308 202.093 396.217 202.267C396.157 202.379 396.054 202.442 395.948 202.442Z" fill="#663B55"/>
<path d="M400.865 213.732C400.8 213.732 400.735 213.708 400.679 213.661C400.612 213.605 393.906 208.013 385.477 210.655C385.312 210.712 385.136 210.592 385.09 210.395C385.045 210.2 385.144 209.997 385.313 209.945C394.048 207.202 400.983 213.008 401.052 213.066C401.192 213.187 401.223 213.416 401.12 213.581C401.059 213.679 400.962 213.732 400.865 213.732Z" fill="#663B55"/>
<path d="M363.791 172.765C363.65 172.765 363.521 172.655 363.485 172.489C363.455 172.358 360.514 159.268 358.308 154.885C358.22 154.709 358.27 154.483 358.42 154.38C358.571 154.278 358.764 154.335 358.853 154.511C361.104 158.983 363.975 171.762 364.096 172.304C364.14 172.5 364.039 172.702 363.87 172.753C363.843 172.761 363.816 172.765 363.791 172.765Z" fill="#CCCED6"/>
<path d="M298.149 175.703C298.117 175.703 298.084 175.697 298.053 175.686C297.887 175.624 297.796 175.418 297.847 175.223C298.565 172.582 300.939 163.917 301.363 163.323C301.476 163.166 301.674 163.146 301.808 163.276C301.942 163.406 301.961 163.638 301.849 163.795C301.54 164.305 299.599 171.214 298.449 175.446C298.407 175.603 298.282 175.703 298.149 175.703Z" fill="#CCCED6"/>
<path fill-rule="evenodd" clip-rule="evenodd" d="M305.324 53.0021C308.095 57.0625 312.646 60.3528 320.086 59.2343C332.562 57.3604 343.123 50.3918 351.92 52.8549C352.146 53.6448 352.29 54.4785 352.339 55.3423C348.765 54.7794 344.189 55.5304 338.851 59.5784C328.743 67.2453 314.661 76.1816 304.016 68.7935C304.631 68.0813 305.366 67.5081 306.183 67.1209C304.565 65.1167 303.573 62.4178 303.573 59.4481C303.573 57.0478 304.221 54.8247 305.324 53.0021Z" fill="#413B73"/>
<path d="M382.966 230.915H279.307C279.132 230.915 278.991 230.749 278.991 230.546C278.991 230.344 279.132 230.177 279.307 230.177H382.966C383.14 230.177 383.282 230.344 383.282 230.546C383.282 230.749 383.14 230.915 382.966 230.915Z" fill="#BE7775"/>
<path fill-rule="evenodd" clip-rule="evenodd" d="M21.4818 341.163C23.5957 341.163 25.3252 339.148 25.3252 336.684V336.311C25.3252 333.848 23.5951 331.833 21.4818 331.833C19.368 331.833 17.6385 333.846 17.6385 336.311V336.684C17.6385 339.148 19.368 341.163 21.4818 341.163ZM18.4787 310.926H209.222H384.837C388.007 310.926 390.602 313.951 390.602 317.646C390.602 321.341 388.009 324.366 384.837 324.366H365.388C363.626 324.366 362.186 326.047 362.186 328.099C362.186 330.151 363.626 331.833 365.388 331.833H372.504C374.705 331.833 376.508 333.933 376.508 336.498C376.508 339.063 374.705 341.163 372.504 341.163H31.4501C29.2483 341.163 27.4472 339.064 27.4472 336.498C27.4472 333.931 29.2489 331.833 31.4501 331.833H37.055C38.8165 331.833 40.2578 330.152 40.2578 328.099C40.2578 326.046 38.8165 324.366 37.055 324.366H18.4787C15.308 324.366 12.715 321.342 12.715 317.646C12.715 313.95 15.3124 310.926 18.4787 310.926Z" fill="#262934"/>
<path fill-rule="evenodd" clip-rule="evenodd" d="M27.4904 75.3774L30.7077 69.0507C30.7636 68.8414 30.8289 68.3949 30.5683 67.9191L26.929 61.2718L26.9278 61.271C26.9133 61.2447 26.6697 60.8289 26.4367 61.2872L21.4083 71.1743C21.2519 71.4824 21.3398 71.8843 21.6042 72.0659L26.7249 75.6058C26.9899 75.7873 27.3334 75.6841 27.4904 75.3774Z" fill="#4B9A5C"/>
<path fill-rule="evenodd" clip-rule="evenodd" d="M33.2783 71.1101L27.3312 60.2487C27.242 60.0869 27.2834 59.871 27.4216 59.7678L33.7186 58.2972C34.0746 58.2145 34.5883 58.1837 34.7202 58.4253L39.2387 66.6757C39.3938 66.9136 39.623 66.9802 39.8459 66.8147C40.2837 66.489 40.7214 66.1633 41.1597 65.8375C41.2684 65.757 41.4021 65.7636 41.5032 65.8558C41.605 65.9466 41.6439 66.0959 41.6043 66.2386L39.6362 73.2768C39.2223 74.7569 39.5119 74.4868 38.1855 74.3009L31.9419 73.4276C31.8138 73.4093 31.7152 73.3054 31.6863 73.159C31.6575 73.0133 31.7083 72.8684 31.817 72.7879L33.1314 71.8106C33.3537 71.6445 33.3976 71.3744 33.2783 71.1101Z" fill="#4B9A5C"/>
<path fill-rule="evenodd" clip-rule="evenodd" d="M37.057 77.4143L39.9005 83.9789C40.0224 84.1458 40.31 84.4503 40.7942 84.4503H47.559H47.5609C47.5879 84.4496 48.0193 84.4342 47.8127 83.9584L43.369 73.6987C43.2308 73.3795 42.893 73.25 42.6179 73.411L37.3044 76.5389C37.03 76.7006 36.9188 77.0944 37.057 77.4143Z" fill="#4B9A5C"/>
<path fill-rule="evenodd" clip-rule="evenodd" d="M36.8807 85.2326H47.936C48.1005 85.2326 48.2349 85.3893 48.2349 85.581L45.9101 92.5585C45.7782 92.9538 45.5245 93.4742 45.2783 93.4742H36.8807C36.6257 93.4991 36.4543 93.6879 36.4543 93.9954V95.8137C36.4543 95.963 36.377 96.0904 36.2558 96.1409C36.1353 96.1914 36.0065 96.1497 35.9249 96.034L31.8937 90.3134C31.0459 89.1108 31.0849 89.5404 31.9333 88.3378L35.9249 82.6728C36.0065 82.5572 36.1353 82.5162 36.2558 82.5667C36.377 82.6165 36.4543 82.7438 36.4543 82.8939V84.7122C36.4543 85.0189 36.6257 85.2085 36.8807 85.2326Z" fill="#4B9A5C"/>
<path fill-rule="evenodd" clip-rule="evenodd" d="M30.0242 85.2501L23.716 85.1652C23.5326 85.2135 23.1684 85.3702 22.9448 85.8709L19.8261 92.8688L19.8255 92.8703C19.8136 92.8988 19.6264 93.3519 20.0836 93.3585L29.9432 93.4903C30.2497 93.4954 30.5046 93.2055 30.5084 92.8468L30.5762 85.9082C30.5806 85.5503 30.3313 85.2538 30.0242 85.2501Z" fill="#4B9A5C"/>
<path fill-rule="evenodd" clip-rule="evenodd" d="M24.0625 81.5515L18.9669 92.9868C18.8909 93.1567 18.7101 93.224 18.5637 93.1354L14.3235 87.5144C14.083 87.1967 13.8041 86.6924 13.9172 86.4391L17.7882 77.7532C17.8874 77.4772 17.8221 77.213 17.5878 77.071C17.1269 76.7913 16.6659 76.5125 16.2043 76.2328C16.09 76.1648 16.0291 76.0257 16.0461 75.8771C16.0637 75.7292 16.1547 75.615 16.2803 75.5835L22.4938 74.0507C23.8 73.7287 23.4546 73.5713 23.9802 75.0023L26.452 81.7426C26.5023 81.8809 26.4747 82.0332 26.3811 82.1349C26.2869 82.2374 26.1544 82.2579 26.0401 82.1891C25.5791 81.9095 25.1175 81.6299 24.656 81.351C24.4223 81.209 24.1994 81.299 24.0625 81.5515Z" fill="#4B9A5C"/>
<path fill-rule="evenodd" clip-rule="evenodd" d="M267.542 125.695C267.31 124.313 267.129 122.966 266.998 121.653C266.865 120.319 266.783 119.027 266.747 117.775C266.622 113.092 267.174 108.96 268.259 105.344C269.434 101.431 271.233 98.1224 273.476 95.3752C275.554 92.8285 278.013 90.7672 280.708 89.1546C283.598 87.4235 286.762 86.2091 290.021 85.4654C291.12 85.2143 292.236 85.0166 293.359 84.871C294.495 84.7231 295.635 84.6294 296.772 84.5884V84.587C296.901 84.5811 297.019 84.6382 297.106 84.7341C297.193 84.8285 297.25 84.9625 297.254 85.1125L297.254 85.1506C297.26 85.6681 297.383 96.7528 293.833 107.284C290.243 117.938 282.911 128.025 267.952 126.142C267.844 126.129 267.75 126.075 267.678 125.993C267.608 125.915 267.559 125.811 267.542 125.695Z" fill="#4B9A5C"/>
<path fill-rule="evenodd" clip-rule="evenodd" d="M386.513 134.601C386.629 133.91 386.719 133.237 386.786 132.58C386.852 131.914 386.893 131.267 386.91 130.641C386.973 128.3 386.697 126.234 386.155 124.426C385.567 122.47 384.668 120.816 383.547 119.441C382.508 118.168 381.278 117.138 379.93 116.331C378.486 115.466 376.904 114.859 375.274 114.487C374.724 114.362 374.166 114.262 373.605 114.19C373.036 114.115 372.467 114.069 371.898 114.048V114.047C371.834 114.045 371.774 114.073 371.731 114.121C371.687 114.168 371.66 114.236 371.658 114.31V114.329C371.655 114.588 371.592 120.13 373.367 125.397C375.163 130.723 378.828 135.767 386.309 134.825C386.361 134.818 386.41 134.79 386.445 134.75C386.48 134.712 386.504 134.659 386.513 134.601Z" fill="#4B9A5C"/>
<path fill-rule="evenodd" clip-rule="evenodd" d="M199.549 71.6656C199.757 70.4256 199.918 69.2163 200.037 68.0371C200.157 66.8402 200.231 65.68 200.261 64.5564C200.374 60.354 199.88 56.6442 198.904 53.3971C197.85 49.8849 196.236 46.9145 194.223 44.4484C192.355 42.1631 190.149 40.3118 187.73 38.8632C185.135 37.3114 182.296 36.2207 179.37 35.5524C178.381 35.3276 177.381 35.1498 176.373 35.0195C175.353 34.8862 174.33 34.8021 173.31 34.7655V34.764C173.194 34.7596 173.088 34.8101 173.009 34.8965C172.931 34.9814 172.881 35.1015 172.877 35.2354V35.2698C172.871 35.7346 172.761 45.6847 175.947 55.1392C179.17 64.7013 185.752 73.7576 199.181 72.0682C199.277 72.0557 199.362 72.006 199.426 71.9342C199.49 71.864 199.533 71.771 199.549 71.6656Z" fill="#4B9A5C"/>
<path fill-rule="evenodd" clip-rule="evenodd" d="M132.324 129.618C132.452 128.863 132.55 128.126 132.622 127.408C132.695 126.678 132.74 125.972 132.758 125.287C132.827 122.727 132.526 120.468 131.932 118.49C131.291 116.351 130.307 114.541 129.08 113.039C127.943 111.646 126.599 110.52 125.125 109.638C123.545 108.692 121.815 108.027 120.033 107.62C119.431 107.483 118.822 107.375 118.208 107.295C117.586 107.214 116.963 107.163 116.341 107.141V107.14C116.271 107.136 116.207 107.168 116.158 107.22C116.111 107.273 116.081 107.346 116.078 107.426V107.448C116.074 107.731 116.007 113.792 117.948 119.551C119.911 125.376 123.92 130.892 132.101 129.864C132.159 129.855 132.211 129.826 132.25 129.781C132.289 129.738 132.315 129.681 132.324 129.618Z" fill="#4B9A5C"/>
<path fill-rule="evenodd" clip-rule="evenodd" d="M126.462 41.7937C126.716 41.4973 127.129 41.4973 127.383 41.7937C127.637 42.0902 127.637 42.5704 127.383 42.8668L125.312 45.281C125.058 45.5767 124.645 45.5767 124.391 45.281C124.136 44.9845 124.136 44.5036 124.391 44.2079L126.462 41.7937ZM128.84 46.9668C129.199 46.9668 129.491 47.3064 129.491 47.7258C129.491 48.1445 129.199 48.4849 128.84 48.4849H125.911C125.552 48.4849 125.26 48.1445 125.26 47.7258C125.26 47.3064 125.552 46.9668 125.911 46.9668H128.84ZM127.383 52.5841C127.637 52.8806 127.637 53.3615 127.383 53.658C127.129 53.9537 126.716 53.9537 126.462 53.658L124.391 51.2438C124.136 50.9474 124.136 50.4665 124.391 50.17C124.645 49.8743 125.058 49.8743 125.312 50.17L127.383 52.5841ZM122.945 55.3562C122.945 55.7756 122.653 56.1146 122.294 56.1146C121.935 56.1146 121.643 55.7756 121.643 55.3562V51.9414C121.643 51.5227 121.935 51.1831 122.294 51.1831C122.653 51.1831 122.945 51.5227 122.945 51.9414V55.3562ZM118.126 53.658C117.871 53.9537 117.459 53.9537 117.205 53.658C116.95 53.3615 116.95 52.8806 117.205 52.5841L119.276 50.17C119.529 49.8743 119.942 49.8743 120.196 50.17C120.451 50.4665 120.451 50.9474 120.196 51.2438L118.126 53.658ZM115.747 48.4849C115.388 48.4849 115.096 48.1445 115.096 47.7258C115.096 47.3064 115.388 46.9668 115.747 46.9668H118.676C119.036 46.9668 119.328 47.3064 119.328 47.7258C119.328 48.1445 119.036 48.4849 118.676 48.4849H115.747ZM117.205 42.8668C116.95 42.5704 116.95 42.0902 117.205 41.7937C117.459 41.4973 117.871 41.4973 118.126 41.7937L120.196 44.2079C120.451 44.5036 120.451 44.9845 120.196 45.281C119.942 45.5767 119.529 45.5767 119.276 45.281L117.205 42.8668ZM121.643 40.0955C121.643 39.676 121.935 39.3364 122.294 39.3364C122.653 39.3364 122.945 39.676 122.945 40.0955V43.5088C122.945 43.9282 122.653 44.2679 122.294 44.2679C121.935 44.2679 121.643 43.9282 121.643 43.5088V40.0955Z" fill="white"/>
<path fill-rule="evenodd" clip-rule="evenodd" d="M160.847 54.9973C162.467 54.9973 163.788 53.4571 163.788 51.57C163.788 49.6815 162.467 48.1428 160.847 48.1428C159.228 48.1428 157.907 49.6815 157.907 51.57C157.907 53.4571 159.228 54.9973 160.847 54.9973Z" fill="white"/>
<path fill-rule="evenodd" clip-rule="evenodd" d="M273.793 54.218C275.413 54.218 276.735 52.6779 276.735 50.7901C276.735 48.9023 275.413 47.3629 273.793 47.3629C272.174 47.3629 270.853 48.9023 270.853 50.7901C270.853 52.6779 272.174 54.218 273.793 54.218Z" fill="white"/>
<path fill-rule="evenodd" clip-rule="evenodd" d="M158.175 188.984C159.794 188.984 161.115 187.444 161.115 185.556C161.115 183.669 159.794 182.129 158.175 182.129C156.555 182.129 155.234 183.669 155.234 185.556C155.234 187.444 156.555 188.984 158.175 188.984Z" fill="white"/>
<path fill-rule="evenodd" clip-rule="evenodd" d="M38.5458 119.653C40.166 119.653 41.4861 118.113 41.4861 116.226C41.4861 114.337 40.166 112.799 38.5458 112.799C36.9262 112.799 35.6055 114.337 35.6055 116.226C35.6055 118.113 36.9262 119.653 38.5458 119.653Z" fill="white"/>
<path fill-rule="evenodd" clip-rule="evenodd" d="M275.72 141.473C275.974 141.177 276.387 141.177 276.64 141.473C276.895 141.771 276.895 142.251 276.64 142.547L274.57 144.962C274.316 145.257 273.902 145.257 273.649 144.962C273.394 144.664 273.394 144.184 273.649 143.887L275.72 141.473ZM278.098 146.647C278.457 146.647 278.75 146.987 278.75 147.406C278.75 147.825 278.457 148.164 278.098 148.164H275.169C274.809 148.164 274.518 147.825 274.518 147.406C274.518 146.987 274.809 146.647 275.169 146.647H278.098ZM276.64 152.265C276.895 152.561 276.895 153.041 276.64 153.337C276.387 153.634 275.974 153.634 275.72 153.337L273.649 150.924C273.394 150.627 273.394 150.146 273.649 149.85C273.902 149.554 274.316 149.554 274.57 149.85L276.64 152.265ZM272.202 155.036C272.202 155.454 271.912 155.795 271.551 155.795C271.193 155.795 270.9 155.454 270.9 155.036V151.621C270.9 151.203 271.193 150.862 271.551 150.862C271.912 150.862 272.202 151.203 272.202 151.621V155.036ZM267.383 153.337C267.129 153.634 266.717 153.634 266.463 153.337C266.208 153.041 266.208 152.561 266.463 152.265L268.533 149.85C268.788 149.554 269.2 149.554 269.454 149.85C269.708 150.146 269.708 150.627 269.454 150.924L267.383 153.337ZM265.005 148.164C264.646 148.164 264.355 147.825 264.355 147.406C264.355 146.987 264.646 146.647 265.005 146.647H267.935C268.293 146.647 268.586 146.987 268.586 147.406C268.586 147.825 268.293 148.164 267.935 148.164H265.005ZM266.463 142.547C266.208 142.251 266.208 141.771 266.463 141.473C266.717 141.177 267.129 141.177 267.383 141.473L269.454 143.887C269.708 144.184 269.708 144.664 269.454 144.962C269.2 145.257 268.788 145.257 268.533 144.962L266.463 142.547ZM270.9 139.775C270.9 139.356 271.193 139.017 271.551 139.017C271.912 139.017 272.202 139.356 272.202 139.775V143.189C272.202 143.608 271.912 143.948 271.551 143.948C271.193 143.948 270.9 143.608 270.9 143.189V139.775Z" fill="white"/>
<path fill-rule="evenodd" clip-rule="evenodd" d="M23.4311 202.039C23.6854 201.743 24.098 201.743 24.3524 202.039C24.6067 202.335 24.6067 202.816 24.3524 203.112L22.2812 205.526C22.0275 205.822 21.6143 205.822 21.36 205.526C21.1056 205.23 21.1056 204.749 21.36 204.453L23.4311 202.039ZM25.8087 207.211C26.1679 207.211 26.4599 207.551 26.4599 207.971C26.4599 208.389 26.1679 208.73 25.8087 208.73H22.8797C22.5211 208.73 22.2291 208.389 22.2291 207.971C22.2291 207.551 22.5211 207.211 22.8797 207.211H25.8087ZM24.3524 212.83C24.6067 213.126 24.6067 213.608 24.3524 213.903C24.098 214.199 23.6854 214.199 23.4311 213.903L21.36 211.489C21.1056 211.193 21.1056 210.713 21.36 210.415C21.6143 210.12 22.0275 210.12 22.2812 210.415L24.3524 212.83ZM19.9143 215.601C19.9143 216.02 19.6223 216.359 19.2631 216.359C18.9032 216.359 18.6118 216.02 18.6118 215.601V212.187C18.6118 211.767 18.9032 211.429 19.2631 211.429C19.6223 211.429 19.9143 211.767 19.9143 212.187V215.601ZM15.0944 213.903C14.8407 214.199 14.4281 214.199 14.1737 213.903C13.9194 213.608 13.9194 213.126 14.1737 212.83L16.2443 210.415C16.4986 210.12 16.9112 210.12 17.1655 210.415C17.4199 210.713 17.4199 211.193 17.1655 211.489L15.0944 213.903ZM12.7168 208.73C12.3576 208.73 12.0656 208.389 12.0656 207.971C12.0656 207.551 12.3576 207.211 12.7168 207.211H15.6452C16.005 207.211 16.297 207.551 16.297 207.971C16.297 208.389 16.005 208.73 15.6452 208.73H12.7168ZM14.1737 203.112C13.9194 202.816 13.9194 202.335 14.1737 202.039C14.4281 201.743 14.8407 201.743 15.0944 202.039L17.1655 204.453C17.4199 204.749 17.4199 205.23 17.1655 205.526C16.9112 205.822 16.4986 205.822 16.2443 205.526L14.1737 203.112ZM18.6118 200.341C18.6118 199.922 18.9032 199.583 19.2631 199.583C19.6223 199.583 19.9143 199.922 19.9143 200.341V203.755C19.9143 204.174 19.6223 204.514 19.2631 204.514C18.9032 204.514 18.6118 204.174 18.6118 203.755V200.341Z" fill="white"/>
</g>
</g>
<defs>
<clipPath id="clip0_1325_153">
<rect width="471" height="366" fill="white" transform="translate(-31)"/>
</clipPath>
</defs>
</svg>
