<svg width="200" height="218" viewBox="0 0 200 218" fill="none" xmlns="http://www.w3.org/2000/svg">
<g clip-path="url(#clip0_1330_1471)">
<path d="M165 43.6H35C32.3478 43.6 29.8043 44.7484 27.9289 46.7925C26.0536 48.8367 25 51.6091 25 54.5V70.85C25 73.7409 26.0536 76.5133 27.9289 78.5575C29.8043 80.6016 32.3478 81.75 35 81.75H45V182.575C45 188.357 47.1071 193.902 50.8579 197.99C54.6086 202.078 59.6957 204.375 65 204.375H135C140.304 204.375 145.391 202.078 149.142 197.99C152.893 193.902 155 188.357 155 182.575V81.75H165C167.652 81.75 170.196 80.6016 172.071 78.5575C173.946 76.5133 175 73.7409 175 70.85V54.5C175 51.6091 173.946 48.8367 172.071 46.7925C170.196 44.7484 167.652 43.6 165 43.6Z" fill="#7DD691"/>
<path d="M165 43.6H150C152.652 43.6 155.196 44.7484 157.071 46.7925C158.946 48.8367 160 51.6091 160 54.5V70.85C160 73.7409 158.946 76.5133 157.071 78.5575C155.196 80.6016 152.652 81.75 150 81.75H140V182.575C140 188.357 137.893 193.902 134.142 197.99C130.391 202.078 125.304 204.375 120 204.375H135C140.304 204.375 145.391 202.078 149.142 197.99C152.893 193.902 155 188.357 155 182.575V81.75H165C167.652 81.75 170.196 80.6016 172.071 78.5575C173.946 76.5133 175 73.7409 175 70.85V54.5C175 51.6091 173.946 48.8367 172.071 46.7925C170.196 44.7484 167.652 43.6 165 43.6Z" fill="#7DD691"/>
<path d="M57.5 27.25V24.525C57.5 21.6341 58.5536 18.8617 60.4289 16.8175C62.3043 14.7734 64.8478 13.625 67.5 13.625H130C132.652 13.625 135.196 14.7734 137.071 16.8175C138.946 18.8617 140 21.6341 140 24.525V27.25" stroke="black" stroke-width="4" stroke-miterlimit="10" stroke-linecap="round"/>
<path d="M72.5 59.95V81.4775" stroke="black" stroke-width="4" stroke-miterlimit="10" stroke-linecap="round"/>
<path d="M100 59.95V81.4775" stroke="black" stroke-width="4" stroke-miterlimit="10" stroke-linecap="round"/>
<path d="M127.5 59.95V65.4" stroke="black" stroke-width="4" stroke-miterlimit="10" stroke-linecap="round"/>
<path d="M165 43.6H35C29.4772 43.6 25 48.4801 25 54.5V70.85C25 76.8699 29.4772 81.75 35 81.75H165C170.523 81.75 175 76.8699 175 70.85V54.5C175 48.4801 170.523 43.6 165 43.6Z" stroke="black" stroke-width="4" stroke-miterlimit="10"/>
<path d="M45 59.95V629.115C45 655.951 54.3863 681.688 71.0941 700.664C87.8019 719.639 110.463 730.3 134.091 730.3H445.909C469.537 730.3 492.198 719.639 508.906 700.664C525.614 681.688 535 655.951 535 629.115V59.95" stroke="black" stroke-width="4" stroke-miterlimit="10" stroke-linecap="round"/>
<path d="M131.507 156.347L139.378 171.207C139.696 171.807 139.863 172.487 139.863 173.18C139.863 173.873 139.696 174.553 139.378 175.153C139.06 175.753 138.603 176.251 138.053 176.598C137.502 176.944 136.878 177.126 136.242 177.126L95.0085 177.125" stroke="black" stroke-width="4" stroke-miterlimit="10" stroke-linecap="round"/>
<path d="M105.007 166.225L95.0074 177.125L105.007 188.025" stroke="black" stroke-width="4" stroke-linecap="round" stroke-linejoin="round"/>
<path d="M89.0193 117.627L96.8903 102.767C97.2081 102.167 97.6652 101.669 98.2156 101.323C98.766 100.976 99.3903 100.794 100.026 100.794C100.661 100.794 101.286 100.976 101.836 101.323C102.387 101.669 102.844 102.167 103.162 102.767L123.777 141.691" stroke="black" stroke-width="4" stroke-miterlimit="10" stroke-linecap="round"/>
<path d="M110.118 137.702L123.778 141.692L127.438 126.802" stroke="black" stroke-width="4" stroke-linecap="round" stroke-linejoin="round"/>
<path d="M79.4999 177.094H63.7577C63.1221 177.094 62.4978 176.912 61.9473 176.565C61.3969 176.219 60.9399 175.72 60.6221 175.121C60.3043 174.521 60.137 173.84 60.137 173.147C60.1369 172.454 60.3042 171.774 60.6219 171.174L81.2399 132.252" stroke="black" stroke-width="4" stroke-miterlimit="10" stroke-linecap="round"/>
<path d="M84.9 147.142L81.24 132.252L67.58 136.242" stroke="black" stroke-width="4" stroke-linecap="round" stroke-linejoin="round"/>
</g>
<defs>
<clipPath id="clip0_1330_1471">
<rect width="200" height="218" fill="white"/>
</clipPath>
</defs>
</svg>
